<svg width="359" height="252" viewBox="0 0 359 252" fill="none" xmlns="http://www.w3.org/2000/svg">
<path d="M262.167 47.0951L222.81 227.732L280.589 250.453L317.575 233.515L357.284 110.141L262.167 47.0951Z" fill="url(#paint0_linear)"/>
<path style="mix-blend-mode:multiply" d="M225.921 213.48L249.146 223.47L297.332 70.4045L262.167 47.0951L225.921 213.48Z" fill="url(#paint1_linear)"/>
<path fill-rule="evenodd" clip-rule="evenodd" d="M356.396 110.453L261.752 47.7202L262.581 46.4699L357.698 109.516C357.979 109.702 358.101 110.051 357.998 110.371L318.289 233.745C318.224 233.945 318.078 234.109 317.887 234.197L280.901 251.135C280.716 251.22 280.504 251.226 280.315 251.151L222.535 228.43L223.084 227.034L280.567 249.638L316.962 232.971L356.396 110.453Z" fill="#110151"/>
<path d="M267.861 122.962C269.117 123.628 270.562 122.884 271.102 121.275C271.383 120.55 271.409 119.759 271.176 119.019C270.944 118.279 270.464 117.63 269.81 117.168C268.554 116.502 267.098 117.256 266.57 118.844C266.286 119.57 266.258 120.364 266.491 121.106C266.724 121.848 267.204 122.499 267.861 122.962Z" fill="url(#paint2_linear)"/>
<path fill-rule="evenodd" clip-rule="evenodd" d="M267.572 116.495C268.367 116.083 269.305 116.051 270.161 116.505L270.204 116.527L270.243 116.555C271.027 117.108 271.608 117.892 271.892 118.794C272.174 119.691 272.144 120.651 271.807 121.53C271.484 122.481 270.875 123.233 270.095 123.637C269.299 124.05 268.364 124.077 267.51 123.624L267.861 122.962L267.429 123.575C266.642 123.021 266.059 122.235 265.775 121.33C265.493 120.431 265.525 119.469 265.864 118.589C266.183 117.644 266.793 116.898 267.572 116.495ZM268.253 122.32C268.642 122.511 269.042 122.494 269.405 122.306C269.792 122.105 270.173 121.686 270.391 121.036L270.396 121.019L270.402 121.003C270.622 120.437 270.642 119.821 270.461 119.244C270.284 118.681 269.922 118.178 269.418 117.81C269.031 117.619 268.628 117.637 268.262 117.827C267.871 118.029 267.492 118.446 267.281 119.081L267.275 119.099L267.268 119.117C267.046 119.684 267.025 120.302 267.206 120.881C267.384 121.446 267.747 121.951 268.253 122.32Z" fill="#110151"/>
<path d="M276.327 127.479C277.595 128.145 279.051 127.401 279.591 125.792C279.878 125.065 279.906 124.27 279.67 123.526C279.435 122.783 278.95 122.133 278.288 121.674C277.031 120.997 275.576 121.752 275.035 123.35C274.753 124.078 274.725 124.873 274.958 125.617C275.191 126.361 275.671 127.014 276.327 127.479Z" fill="url(#paint3_linear)"/>
<path fill-rule="evenodd" clip-rule="evenodd" d="M276.049 120.992C276.847 120.58 277.787 120.552 278.644 121.014L278.681 121.034L278.715 121.058C279.509 121.608 280.098 122.393 280.385 123.3C280.671 124.202 280.639 125.167 280.296 126.049C279.972 127.002 279.359 127.752 278.575 128.156C277.776 128.567 276.836 128.594 275.978 128.143L276.327 127.479L275.893 128.091C275.108 127.534 274.526 126.746 274.242 125.841C273.96 124.94 273.992 123.976 274.33 123.094C274.655 122.146 275.267 121.396 276.049 120.992ZM276.718 126.837C277.115 127.029 277.521 127.011 277.889 126.822C278.28 126.621 278.663 126.201 278.88 125.553L278.886 125.535L278.893 125.517C279.117 124.95 279.138 124.331 278.955 123.753C278.776 123.186 278.408 122.681 277.897 122.316C277.508 122.12 277.105 122.135 276.737 122.325C276.346 122.527 275.963 122.947 275.746 123.59L275.741 123.606L275.735 123.622C275.513 124.192 275.492 124.812 275.674 125.393C275.851 125.959 276.214 126.465 276.718 126.837Z" fill="#110151"/>
<path d="M284.769 132.019C286.037 132.696 287.505 131.952 288.045 130.332C288.328 129.6 288.353 128.801 288.116 128.055C287.879 127.309 287.393 126.655 286.73 126.192C285.462 125.526 283.994 126.28 283.454 127.879C283.173 128.611 283.149 129.409 283.386 130.155C283.623 130.901 284.108 131.555 284.769 132.019Z" fill="url(#paint4_linear)"/>
<path fill-rule="evenodd" clip-rule="evenodd" d="M284.476 125.519C285.276 125.108 286.218 125.076 287.079 125.528L287.121 125.55L287.16 125.577C287.953 126.131 288.542 126.919 288.831 127.828C289.118 128.732 289.09 129.7 288.751 130.586C288.427 131.546 287.81 132.301 287.022 132.705C286.219 133.116 285.275 133.139 284.416 132.681L284.769 132.019L284.338 132.633C283.547 132.077 282.959 131.29 282.671 130.382C282.384 129.478 282.412 128.511 282.749 127.624C283.074 126.673 283.691 125.923 284.476 125.519ZM285.161 131.377C285.559 131.575 285.968 131.559 286.338 131.37C286.731 131.168 287.116 130.747 287.334 130.095L287.339 130.078L287.346 130.061C287.567 129.488 287.587 128.865 287.401 128.282C287.221 127.713 286.852 127.205 286.341 126.835C285.946 126.643 285.536 126.661 285.162 126.853C284.766 127.057 284.381 127.478 284.165 128.119L284.16 128.133L284.154 128.148C283.934 128.721 283.915 129.345 284.101 129.928C284.282 130.498 284.65 131.006 285.161 131.377Z" fill="#110151"/>
<path d="M293.293 136.592C294.573 137.28 296.053 136.525 296.593 134.905C296.879 134.172 296.905 133.37 296.668 132.622C296.431 131.873 295.943 131.218 295.278 130.754C293.998 130.077 292.518 130.831 291.978 132.441C291.692 133.174 291.666 133.975 291.903 134.724C292.14 135.473 292.628 136.128 293.293 136.592Z" fill="url(#paint5_linear)"/>
<path fill-rule="evenodd" clip-rule="evenodd" d="M293.009 130.072C293.815 129.66 294.763 129.633 295.628 130.091L295.669 130.112L295.707 130.138C296.503 130.694 297.094 131.484 297.383 132.395C297.67 133.302 297.64 134.272 297.298 135.16C296.974 136.121 296.354 136.877 295.562 137.282C294.754 137.695 293.803 137.718 292.938 137.253L293.293 136.592L292.864 137.207C292.068 136.652 291.477 135.862 291.188 134.95C290.901 134.044 290.931 133.073 291.273 132.185C291.598 131.229 292.219 130.476 293.009 130.072ZM293.685 135.951C294.089 136.154 294.504 136.138 294.879 135.946C295.277 135.743 295.664 135.319 295.881 134.668L295.887 134.65L295.894 134.632C296.118 134.058 296.138 133.433 295.953 132.848C295.772 132.277 295.402 131.767 294.888 131.397C294.485 131.198 294.069 131.215 293.692 131.408C293.292 131.612 292.906 132.034 292.689 132.679L292.684 132.697L292.677 132.713C292.453 133.287 292.433 133.912 292.618 134.497C292.799 135.069 293.17 135.58 293.685 135.951Z" fill="#110151"/>
<path d="M301.876 141.198C303.168 141.887 304.647 141.132 305.199 139.511C305.484 138.773 305.509 137.968 305.269 137.216C305.03 136.464 304.54 135.805 303.872 135.338C302.593 134.661 301.102 135.416 300.55 137.025C300.265 137.763 300.24 138.568 300.48 139.32C300.719 140.072 301.209 140.731 301.876 141.198Z" fill="url(#paint6_linear)"/>
<path fill-rule="evenodd" clip-rule="evenodd" d="M301.599 134.655C302.407 134.245 303.357 134.217 304.223 134.675L304.264 134.697L304.302 134.723C305.1 135.282 305.693 136.075 305.984 136.989C306.274 137.899 306.245 138.874 305.904 139.767C305.574 140.728 304.951 141.485 304.155 141.889C303.344 142.302 302.393 142.323 301.524 141.86L301.876 141.198L301.446 141.813C300.649 141.255 300.055 140.462 299.765 139.547C299.475 138.637 299.504 137.661 299.845 136.768C300.177 135.81 300.804 135.058 301.599 134.655ZM302.268 140.557C302.678 140.761 303.097 140.744 303.475 140.552C303.877 140.348 304.267 139.923 304.489 139.27L304.494 139.255L304.5 139.241C304.723 138.662 304.742 138.033 304.555 137.443C304.372 136.868 303.999 136.355 303.482 135.981C303.08 135.783 302.66 135.799 302.277 135.993C301.872 136.198 301.48 136.623 301.259 137.268L301.255 137.282L301.249 137.295C301.026 137.874 301.007 138.504 301.194 139.093C301.377 139.669 301.75 140.182 302.268 140.557Z" fill="#110151"/>
<path d="M310.518 145.827C311.81 146.515 313.312 145.827 313.864 144.14C314.153 143.4 314.178 142.591 313.936 141.836C313.695 141.081 313.2 140.421 312.526 139.955C311.234 139.267 309.731 140.022 309.179 141.643C308.893 142.383 308.869 143.191 309.11 143.946C309.352 144.7 309.846 145.361 310.518 145.827Z" fill="url(#paint7_linear)"/>
<path fill-rule="evenodd" clip-rule="evenodd" d="M310.238 139.263C311.052 138.853 312.008 138.83 312.878 139.293L312.916 139.314L312.952 139.338C313.757 139.894 314.357 140.689 314.651 141.607C314.942 142.52 314.914 143.498 314.571 144.393C314.24 145.388 313.608 146.151 312.798 146.548C311.975 146.951 311.023 146.946 310.165 146.489L310.127 146.468L310.09 146.443C309.287 145.886 308.689 145.092 308.396 144.174C308.104 143.261 308.132 142.282 308.474 141.386C308.806 140.422 309.438 139.666 310.238 139.263ZM310.913 140.603C310.504 140.809 310.111 141.235 309.889 141.884L309.885 141.899L309.879 141.913C309.654 142.494 309.636 143.126 309.825 143.717C310.01 144.296 310.386 144.811 310.908 145.185C311.33 145.396 311.761 145.386 312.139 145.201C312.536 145.006 312.928 144.589 313.151 143.907L313.158 143.887L313.165 143.868C313.391 143.287 313.411 142.655 313.222 142.064C313.037 141.486 312.66 140.971 312.136 140.598C311.726 140.393 311.299 140.408 310.913 140.603Z" fill="#110151"/>
<path d="M321.226 144.606C319.935 143.907 318.42 144.662 317.868 146.282C317.577 147.024 317.551 147.835 317.792 148.593C318.034 149.35 318.531 150.012 319.207 150.478C320.51 151.188 322.025 150.478 322.577 148.802C322.867 148.059 322.891 147.247 322.648 146.489C322.404 145.732 321.905 145.071 321.226 144.606Z" fill="url(#paint8_linear)"/>
<path fill-rule="evenodd" clip-rule="evenodd" d="M318.935 143.903C319.753 143.495 320.713 143.475 321.584 143.947L321.226 144.606L321.65 143.987C322.461 144.542 323.065 145.338 323.362 146.26C323.656 147.175 323.628 148.157 323.283 149.056C322.952 150.047 322.316 150.811 321.503 151.209C320.675 151.613 319.714 151.608 318.848 151.136L318.814 151.118L318.781 151.096C317.973 150.539 317.372 149.742 317.078 148.821C316.785 147.904 316.816 146.922 317.164 146.024C317.497 145.059 318.132 144.304 318.935 143.903ZM320.836 145.248C320.425 145.038 319.995 145.051 319.605 145.245C319.194 145.45 318.799 145.876 318.578 146.524L318.573 146.54L318.567 146.556C318.338 147.138 318.318 147.772 318.507 148.365C318.692 148.946 319.072 149.464 319.599 149.837C320.026 150.057 320.461 150.048 320.844 149.861C321.247 149.664 321.642 149.243 321.864 148.567L321.871 148.548L321.878 148.529C322.105 147.947 322.125 147.312 321.934 146.719C321.747 146.138 321.365 145.621 320.836 145.248Z" fill="#110151"/>
<path d="M263.611 135.604C264.867 136.281 266.311 135.538 266.84 133.95C267.121 133.225 267.149 132.433 266.918 131.692C266.688 130.95 266.212 130.299 265.56 129.832C264.304 129.155 262.86 129.91 262.319 131.508C262.043 132.232 262.019 133.02 262.252 133.757C262.484 134.495 262.961 135.142 263.611 135.604Z" fill="url(#paint9_linear)"/>
<path fill-rule="evenodd" clip-rule="evenodd" d="M263.326 129.151C264.122 128.738 265.06 128.711 265.916 129.172L265.958 129.195L265.996 129.222C266.777 129.781 267.354 130.566 267.634 131.469C267.913 132.367 267.882 133.326 267.546 134.204C267.227 135.148 266.62 135.894 265.841 136.294C265.045 136.702 264.109 136.724 263.255 136.264L263.611 135.604L263.176 136.215C262.398 135.662 261.82 134.881 261.536 133.983C261.255 133.089 261.282 132.132 261.614 131.254C261.937 130.307 262.546 129.556 263.326 129.151ZM264.006 134.964C264.397 135.16 264.796 135.144 265.156 134.959C265.54 134.762 265.917 134.349 266.128 133.713L266.134 133.696L266.141 133.679C266.361 133.111 266.382 132.494 266.202 131.914C266.026 131.35 265.666 130.844 265.164 130.472C264.776 130.278 264.379 130.295 264.017 130.483C263.629 130.684 263.248 131.104 263.03 131.748L263.025 131.762L263.02 131.776C262.804 132.342 262.786 132.956 262.967 133.532C263.144 134.093 263.505 134.596 264.006 134.964Z" fill="#110151"/>
<path d="M272.007 140.155C273.263 140.832 274.719 140.089 275.259 138.49C275.541 137.764 275.568 136.971 275.335 136.229C275.102 135.487 274.623 134.836 273.967 134.372C272.711 133.695 271.255 134.439 270.715 136.037C270.435 136.764 270.409 137.556 270.642 138.298C270.874 139.039 271.353 139.69 272.007 140.155Z" fill="url(#paint10_linear)"/>
<path fill-rule="evenodd" clip-rule="evenodd" d="M271.731 133.684C272.53 133.275 273.469 133.252 274.323 133.712L274.363 133.734L274.401 133.76C275.185 134.315 275.767 135.1 276.051 136.004C276.333 136.904 276.302 137.866 275.964 138.746C275.64 139.695 275.026 140.443 274.243 140.844C273.444 141.252 272.505 141.276 271.651 140.815L271.61 140.793L271.572 140.766C270.789 140.21 270.209 139.425 269.926 138.522C269.644 137.623 269.674 136.663 270.01 135.782C270.334 134.833 270.948 134.084 271.731 133.684ZM272.414 135.019C272.024 135.218 271.643 135.635 271.426 136.277L271.421 136.292L271.415 136.307C271.196 136.876 271.176 137.494 271.357 138.073C271.535 138.639 271.897 139.144 272.402 139.515C272.792 139.711 273.194 139.695 273.56 139.508C273.95 139.309 274.331 138.892 274.548 138.25L274.554 138.234L274.56 138.219C274.78 137.651 274.801 137.032 274.619 136.453C274.442 135.888 274.079 135.382 273.573 135.012C273.183 134.816 272.78 134.832 272.414 135.019Z" fill="#110151"/>
<path d="M280.46 144.728C281.728 145.416 283.196 144.673 283.736 143.074C284.017 142.342 284.041 141.544 283.804 140.798C283.567 140.052 283.082 139.399 282.421 138.934C281.164 138.246 279.697 138.934 279.157 140.599C278.877 141.328 278.853 142.124 279.087 142.867C279.322 143.61 279.803 144.263 280.46 144.728Z" fill="url(#paint11_linear)"/>
<path fill-rule="evenodd" clip-rule="evenodd" d="M280.186 138.213C280.997 137.809 281.937 137.814 282.781 138.276L282.818 138.296L282.852 138.32C283.643 138.876 284.231 139.663 284.519 140.571C284.806 141.475 284.778 142.442 284.441 143.329C284.116 144.28 283.498 145.029 282.709 145.428C281.905 145.835 280.961 145.853 280.102 145.387L280.46 144.728L280.026 145.34C279.241 144.784 278.658 143.998 278.372 143.093C278.088 142.194 278.116 141.231 278.449 140.349C278.773 139.367 279.39 138.608 280.186 138.213ZM280.856 144.089C281.253 144.291 281.663 144.276 282.033 144.089C282.426 143.891 282.809 143.475 283.025 142.834L283.03 142.82L283.036 142.805C283.256 142.232 283.275 141.609 283.089 141.025C282.908 140.454 282.538 139.945 282.025 139.573C281.624 139.366 281.216 139.376 280.854 139.556C280.472 139.746 280.089 140.157 279.87 140.83L279.864 140.849L279.857 140.868C279.638 141.439 279.619 142.06 279.802 142.641C279.982 143.209 280.347 143.717 280.856 144.089Z" fill="#110151"/>
<path d="M288.96 149.357C290.24 150.045 291.708 149.357 292.26 147.703C292.541 146.967 292.565 146.166 292.328 145.417C292.091 144.667 291.606 144.01 290.945 143.54C289.665 142.852 288.197 143.54 287.645 145.205C287.365 145.939 287.342 146.739 287.578 147.486C287.815 148.234 288.3 148.889 288.96 149.357Z" fill="url(#paint12_linear)"/>
<path fill-rule="evenodd" clip-rule="evenodd" d="M288.69 142.818C289.505 142.416 290.448 142.422 291.3 142.88L291.341 142.902L291.378 142.929C292.169 143.489 292.756 144.28 293.043 145.191C293.329 146.097 293.302 147.066 292.966 147.956C292.636 148.933 292.014 149.688 291.214 150.081C290.399 150.481 289.457 150.475 288.605 150.017L288.96 149.357L288.527 149.969C287.738 149.41 287.151 148.621 286.863 147.713C286.577 146.809 286.604 145.841 286.939 144.954C287.268 143.972 287.889 143.213 288.69 142.818ZM289.355 148.717C289.77 148.926 290.186 148.915 290.552 148.735C290.94 148.545 291.325 148.135 291.548 147.465L291.553 147.45L291.559 147.435C291.78 146.857 291.798 146.23 291.613 145.643C291.432 145.069 291.063 144.556 290.55 144.18C290.135 143.971 289.719 143.983 289.354 144.163C288.967 144.354 288.581 144.766 288.357 145.441L288.352 145.457L288.346 145.473C288.126 146.049 288.108 146.674 288.293 147.26C288.474 147.832 288.843 148.343 289.355 148.717Z" fill="#110151"/>
<path d="M297.52 153.974C298.8 154.663 300.279 153.974 300.831 152.309C301.117 151.573 301.143 150.768 300.906 150.016C300.669 149.264 300.182 148.605 299.516 148.136C298.224 147.448 296.745 148.136 296.193 149.812C295.913 150.549 295.891 151.351 296.13 152.1C296.369 152.85 296.856 153.507 297.52 153.974Z" fill="url(#paint13_linear)"/>
<path fill-rule="evenodd" clip-rule="evenodd" d="M297.246 147.414C298.065 147.011 299.012 147.018 299.869 147.474L299.91 147.496L299.948 147.523C300.743 148.083 301.333 148.877 301.622 149.791C301.908 150.7 301.878 151.673 301.537 152.563C301.207 153.546 300.582 154.303 299.779 154.697C298.962 155.099 298.017 155.093 297.165 154.635L297.52 153.974L297.088 154.587C296.295 154.029 295.706 153.238 295.415 152.328C295.127 151.422 295.152 150.452 295.486 149.561C295.816 148.573 296.44 147.811 297.246 147.414ZM297.914 153.334C298.329 153.543 298.748 153.533 299.118 153.351C299.508 153.159 299.896 152.747 300.119 152.073L300.125 152.056L300.132 152.038C300.356 151.46 300.376 150.831 300.191 150.242C300.01 149.666 299.639 149.152 299.123 148.777C298.701 148.566 298.278 148.578 297.908 148.76C297.518 148.953 297.129 149.367 296.905 150.046L296.9 150.063L296.894 150.078C296.674 150.657 296.657 151.285 296.844 151.872C297.027 152.446 297.399 152.959 297.914 153.334Z" fill="#110151"/>
<path d="M306.138 158.636C307.43 159.335 308.921 158.636 309.473 156.982C309.758 156.24 309.782 155.43 309.541 154.674C309.3 153.918 308.806 153.256 308.134 152.787C306.843 152.098 305.352 152.787 304.8 154.452C304.514 155.192 304.489 156 304.731 156.755C304.972 157.51 305.466 158.17 306.138 158.636Z" fill="url(#paint14_linear)"/>
<path fill-rule="evenodd" clip-rule="evenodd" d="M305.861 152.063C306.681 151.663 307.63 151.668 308.487 152.125L308.527 152.146L308.564 152.172C309.366 152.732 309.962 153.528 310.255 154.446C310.547 155.36 310.52 156.339 310.179 157.236C309.848 158.216 309.219 158.972 308.412 159.366C307.591 159.766 306.64 159.761 305.781 159.296L306.138 158.636L305.711 159.252C304.908 158.695 304.31 157.901 304.016 156.983C303.725 156.071 303.752 155.093 304.094 154.198C304.425 153.213 305.054 152.456 305.861 152.063ZM306.531 157.995C306.952 158.21 307.379 158.201 307.754 158.018C308.15 157.825 308.539 157.411 308.762 156.745L308.767 156.729L308.773 156.713C308.997 156.13 309.015 155.496 308.826 154.902C308.641 154.322 308.265 153.805 307.743 153.429C307.321 153.217 306.893 153.228 306.519 153.411C306.124 153.603 305.734 154.016 305.512 154.688L305.506 154.705L305.499 154.722C305.275 155.303 305.256 155.935 305.445 156.526C305.63 157.105 306.008 157.621 306.531 157.995Z" fill="#110151"/>
<path d="M316.811 157.471C315.52 156.771 314.017 157.471 313.453 159.136C313.167 159.879 313.144 160.69 313.388 161.446C313.631 162.203 314.128 162.864 314.803 163.331C316.095 164.031 317.598 163.331 318.15 161.677C318.442 160.934 318.469 160.121 318.227 159.362C317.986 158.602 317.488 157.938 316.811 157.471Z" fill="url(#paint15_linear)"/>
<path fill-rule="evenodd" clip-rule="evenodd" d="M314.531 156.742C315.355 156.341 316.308 156.346 317.168 156.811L316.811 157.471L317.237 156.854C318.046 157.412 318.648 158.211 318.942 159.134C319.234 160.052 319.203 161.035 318.855 161.933C318.523 162.914 317.89 163.669 317.081 164.062C316.259 164.46 315.306 164.456 314.446 163.991L314.41 163.971L314.377 163.948C313.57 163.391 312.97 162.595 312.674 161.676C312.379 160.761 312.405 159.78 312.748 158.881C313.085 157.895 313.721 157.136 314.531 156.742ZM316.419 158.112C315.999 157.897 315.568 157.906 315.187 158.091C314.786 158.286 314.391 158.704 314.163 159.376L314.159 159.391L314.153 159.405C313.929 159.989 313.911 160.623 314.102 161.217C314.289 161.798 314.669 162.316 315.195 162.69C315.616 162.905 316.047 162.896 316.426 162.712C316.825 162.518 317.217 162.104 317.438 161.44L317.444 161.421L317.452 161.403C317.681 160.82 317.702 160.184 317.512 159.589C317.327 159.006 316.947 158.487 316.419 158.112Z" fill="#110151"/>
<path d="M259.384 148.247C260.617 148.924 262.073 148.191 262.601 146.604C262.88 145.879 262.905 145.088 262.673 144.349C262.44 143.609 261.962 142.96 261.309 142.497C260.065 141.82 258.621 142.497 258.092 144.14C257.817 144.865 257.794 145.655 258.026 146.393C258.258 147.132 258.734 147.781 259.384 148.247Z" fill="url(#paint16_linear)"/>
<path fill-rule="evenodd" clip-rule="evenodd" d="M259.098 141.777C259.901 141.378 260.831 141.383 261.668 141.838L261.707 141.86L261.743 141.885C262.525 142.44 263.105 143.223 263.388 144.124C263.67 145.02 263.641 145.979 263.307 146.857C262.988 147.803 262.376 148.547 261.596 148.943C260.802 149.347 259.867 149.368 259.023 148.904L258.984 148.883L258.947 148.857C258.17 148.3 257.593 147.518 257.31 146.618C257.029 145.725 257.056 144.769 257.384 143.892C257.701 142.92 258.31 142.169 259.098 141.777ZM259.766 143.12C259.394 143.305 259.019 143.707 258.806 144.37L258.8 144.388L258.793 144.406C258.578 144.974 258.56 145.591 258.741 146.168C258.919 146.733 259.28 147.238 259.782 147.609C260.16 147.802 260.555 147.79 260.917 147.606C261.301 147.411 261.678 147 261.889 146.367L261.895 146.351L261.901 146.335C262.119 145.768 262.139 145.151 261.957 144.574C261.78 144.01 261.417 143.505 260.913 143.136C260.517 142.934 260.118 142.945 259.766 143.12Z" fill="#110151"/>
<path d="M269.693 147.026C268.448 146.349 266.992 147.026 266.464 148.68C266.184 149.406 266.158 150.199 266.391 150.94C266.623 151.682 267.102 152.333 267.756 152.798C269 153.475 270.456 152.798 270.996 151.155C271.274 150.425 271.297 149.631 271.063 148.888C270.828 148.145 270.348 147.492 269.693 147.026Z" fill="url(#paint17_linear)"/>
<path fill-rule="evenodd" clip-rule="evenodd" d="M267.476 146.307C268.281 145.907 269.214 145.912 270.051 146.367L269.693 147.026L270.128 146.415C270.911 146.972 271.493 147.758 271.778 148.662C272.062 149.561 272.035 150.523 271.703 151.406C271.379 152.378 270.763 153.128 269.972 153.519C269.167 153.916 268.235 153.912 267.397 153.457L267.358 153.435L267.321 153.409C266.539 152.853 265.958 152.068 265.675 151.165C265.394 150.268 265.423 149.309 265.756 148.431C266.074 147.453 266.686 146.7 267.476 146.307ZM269.296 147.664C268.901 147.463 268.499 147.474 268.144 147.65C267.768 147.837 267.391 148.241 267.179 148.908L267.172 148.929L267.164 148.949C266.945 149.518 266.925 150.136 267.107 150.716C267.284 151.282 267.647 151.788 268.152 152.159C268.547 152.36 268.95 152.35 269.308 152.174C269.687 151.987 270.066 151.583 270.284 150.921L270.289 150.904L270.295 150.888C270.513 150.316 270.531 149.695 270.348 149.114C270.168 148.545 269.804 148.037 269.296 147.664Z" fill="#110151"/>
<path d="M278.135 151.577C276.867 150.889 275.411 151.577 274.871 153.231C274.593 153.96 274.57 154.755 274.804 155.498C275.039 156.241 275.519 156.893 276.174 157.36C277.442 158.048 278.898 157.36 279.439 155.717C279.717 154.986 279.741 154.189 279.507 153.444C279.272 152.699 278.792 152.045 278.135 151.577Z" fill="url(#paint18_linear)"/>
<path fill-rule="evenodd" clip-rule="evenodd" d="M275.897 150.854C276.707 150.451 277.646 150.458 278.493 150.918L278.135 151.577L278.571 150.966C279.355 151.526 279.937 152.313 280.222 153.219C280.506 154.12 280.478 155.083 280.146 155.968C279.822 156.939 279.206 157.692 278.412 158.085C277.602 158.485 276.664 158.479 275.817 158.019L275.777 157.997L275.74 157.971C274.956 157.413 274.375 156.627 274.089 155.723C273.806 154.825 273.832 153.863 274.164 152.981C274.487 152.004 275.102 151.248 275.897 150.854ZM277.738 152.215C277.33 152.008 276.922 152.019 276.564 152.197C276.183 152.386 275.803 152.794 275.584 153.463L275.578 153.481L275.572 153.497C275.354 154.069 275.336 154.69 275.52 155.272C275.699 155.84 276.064 156.348 276.571 156.721C276.979 156.928 277.388 156.917 277.747 156.74C278.128 156.552 278.508 156.146 278.726 155.483L278.732 155.466L278.738 155.45C278.956 154.876 278.975 154.253 278.791 153.67C278.612 153.1 278.246 152.59 277.738 152.215Z" fill="#110151"/>
<path d="M286.624 156.25C285.344 155.55 283.888 156.25 283.336 157.892C283.058 158.626 283.036 159.425 283.272 160.172C283.509 160.919 283.992 161.575 284.652 162.044C285.92 162.732 287.387 162.044 287.927 160.401C288.213 159.669 288.24 158.869 288.005 158.121C287.77 157.373 287.286 156.716 286.624 156.25Z" fill="url(#paint19_linear)"/>
<path fill-rule="evenodd" clip-rule="evenodd" d="M284.375 155.52C285.188 155.119 286.13 155.125 286.984 155.592L286.624 156.25L287.056 155.637C287.848 156.195 288.435 156.985 288.721 157.896C289.005 158.801 288.974 159.769 288.634 160.654C288.309 161.627 287.69 162.378 286.893 162.77C286.082 163.168 285.141 163.163 284.294 162.703L284.254 162.681L284.217 162.655C283.429 162.095 282.845 161.307 282.557 160.399C282.271 159.495 282.297 158.528 282.63 157.64C282.959 156.67 283.578 155.914 284.375 155.52ZM286.228 156.889C285.814 156.675 285.401 156.687 285.039 156.865C284.655 157.055 284.271 157.465 284.047 158.131L284.043 158.145L284.038 158.158C283.819 158.735 283.802 159.36 283.987 159.946C284.168 160.518 284.537 161.03 285.048 161.405C285.456 161.612 285.868 161.602 286.232 161.423C286.616 161.235 286.998 160.828 287.215 160.167L287.221 160.148L287.229 160.129C287.452 159.555 287.473 158.93 287.29 158.345C287.11 157.773 286.741 157.262 286.228 156.889Z" fill="#110151"/>
<path d="M295.113 160.9C293.833 160.201 292.354 160.9 291.814 162.543C291.533 163.279 291.509 164.08 291.745 164.829C291.982 165.579 292.467 166.236 293.129 166.706C294.409 167.405 295.888 166.706 296.44 165.074C296.723 164.336 296.746 163.531 296.507 162.78C296.268 162.028 295.779 161.369 295.113 160.9Z" fill="url(#paint20_linear)"/>
<path fill-rule="evenodd" clip-rule="evenodd" d="M292.856 160.17C293.672 159.77 294.619 159.776 295.473 160.242L295.113 160.9L295.544 160.287C296.34 160.846 296.932 161.639 297.222 162.552C297.511 163.462 297.484 164.436 297.146 165.328C296.814 166.297 296.187 167.048 295.385 167.438C294.57 167.835 293.624 167.831 292.769 167.364L292.731 167.343L292.695 167.317C291.905 166.757 291.318 165.966 291.03 165.055C290.744 164.15 290.771 163.181 291.107 162.292C291.432 161.317 292.055 160.563 292.856 160.17ZM294.718 161.54C294.303 161.326 293.884 161.336 293.516 161.517C293.127 161.708 292.743 162.117 292.526 162.777L292.521 162.794L292.514 162.811C292.293 163.389 292.275 164.016 292.461 164.603C292.642 165.178 293.012 165.691 293.526 166.067C293.939 166.279 294.358 166.27 294.729 166.089C295.121 165.899 295.508 165.489 295.729 164.834L295.734 164.82L295.74 164.806C295.962 164.226 295.98 163.596 295.792 163.007C295.609 162.43 295.236 161.915 294.718 161.54Z" fill="#110151"/>
<path d="M303.755 165.573C302.475 164.874 300.984 165.573 300.432 167.227C300.152 167.968 300.131 168.775 300.372 169.528C300.613 170.282 301.103 170.942 301.771 171.412C303.051 172.111 304.542 171.412 305.094 169.769C305.379 169.027 305.403 168.217 305.161 167.461C304.92 166.705 304.427 166.043 303.755 165.573Z" fill="url(#paint21_linear)"/>
<path fill-rule="evenodd" clip-rule="evenodd" d="M301.491 164.844C302.31 164.444 303.26 164.448 304.115 164.915L304.151 164.935L304.185 164.959C304.987 165.519 305.583 166.315 305.876 167.233C306.167 168.147 306.14 169.126 305.8 170.023C305.468 170.998 304.838 171.752 304.033 172.143C303.215 172.541 302.266 172.537 301.411 172.07L301.374 172.05L301.339 172.025C300.542 171.464 299.95 170.671 299.657 169.757C299.366 168.846 299.39 167.871 299.726 166.976C300.056 165.995 300.686 165.238 301.491 164.844ZM302.15 166.192C301.756 166.385 301.366 166.798 301.144 167.465L301.139 167.479L301.134 167.493C300.913 168.076 300.897 168.708 301.086 169.3C301.271 169.879 301.646 170.396 302.167 170.773C302.58 170.986 303.003 170.977 303.377 170.794C303.772 170.602 304.161 170.19 304.383 169.53L304.388 169.515L304.394 169.5C304.618 168.917 304.636 168.282 304.447 167.689C304.261 167.108 303.884 166.59 303.361 166.213C302.947 166 302.524 166.009 302.15 166.192Z" fill="#110151"/>
<path d="M312.409 170.291C311.117 169.581 309.626 170.291 309.062 171.934C308.777 172.676 308.753 173.486 308.995 174.242C309.236 174.998 309.729 175.66 310.401 176.129C311.692 176.84 313.195 176.129 313.747 174.498C314.039 173.754 314.066 172.941 313.825 172.182C313.583 171.423 313.086 170.759 312.409 170.291Z" fill="url(#paint22_linear)"/>
<path fill-rule="evenodd" clip-rule="evenodd" d="M310.134 169.555C310.956 169.156 311.909 169.16 312.77 169.634L312.409 170.291L312.835 169.674C313.644 170.233 314.246 171.031 314.539 171.955C314.832 172.873 314.8 173.856 314.452 174.755C314.119 175.726 313.485 176.477 312.678 176.867C311.856 177.264 310.901 177.26 310.039 176.786L310.004 176.767L309.971 176.744C309.169 176.184 308.573 175.388 308.28 174.47C307.988 173.555 308.016 172.575 308.357 171.677C308.695 170.704 309.327 169.948 310.134 169.555ZM312.015 170.931C311.595 170.712 311.169 170.72 310.791 170.904C310.392 171.098 309.999 171.514 309.772 172.177L309.767 172.19L309.762 172.203C309.538 172.786 309.52 173.42 309.709 174.014C309.895 174.595 310.272 175.114 310.796 175.49C311.216 175.708 311.645 175.7 312.025 175.516C312.425 175.323 312.816 174.91 313.037 174.257L313.042 174.24L313.049 174.224C313.278 173.64 313.299 173.004 313.11 172.409C312.924 171.826 312.543 171.306 312.015 170.931Z" fill="#110151"/>
<path d="M257.095 155.051C255.838 154.363 254.406 155.051 253.877 156.683C253.603 157.405 253.58 158.192 253.81 158.928C254.04 159.664 254.512 160.312 255.157 160.778C256.402 161.466 257.834 160.778 258.374 159.158C258.649 158.433 258.673 157.645 258.443 156.907C258.213 156.169 257.741 155.519 257.095 155.051Z" fill="url(#paint23_linear)"/>
<path fill-rule="evenodd" clip-rule="evenodd" d="M254.878 154.326C255.681 153.925 256.613 153.932 257.455 154.393L257.095 155.051L257.534 154.443C258.307 155.003 258.879 155.786 259.159 156.684C259.438 157.578 259.41 158.532 259.081 159.409C258.758 160.368 258.149 161.115 257.364 161.506C256.562 161.904 255.632 161.898 254.794 161.435L254.755 161.413L254.718 161.386C253.946 160.829 253.374 160.048 253.094 159.152C252.816 158.261 252.842 157.309 253.17 156.434C253.486 155.47 254.091 154.718 254.878 154.326ZM256.694 155.687C256.293 155.482 255.896 155.494 255.548 155.668C255.177 155.853 254.804 156.255 254.591 156.914L254.585 156.931L254.579 156.948C254.364 157.514 254.346 158.128 254.526 158.704C254.701 159.266 255.06 159.77 255.558 160.142C255.952 160.346 256.347 160.336 256.696 160.162C257.069 159.977 257.445 159.575 257.663 158.921L257.668 158.906L257.673 158.892C257.889 158.324 257.907 157.708 257.727 157.13C257.552 156.566 257.193 156.061 256.694 155.687Z" fill="#110151"/>
<path d="M265.443 159.646C264.198 158.958 262.754 159.646 262.214 161.278C261.94 162.005 261.917 162.796 262.149 163.536C262.381 164.276 262.856 164.928 263.506 165.396C264.75 166.084 266.194 165.396 266.735 163.775C267.014 163.047 267.039 162.253 266.806 161.51C266.574 160.767 266.096 160.114 265.443 159.646Z" fill="url(#paint24_linear)"/>
<path fill-rule="evenodd" clip-rule="evenodd" d="M263.231 158.92C264.035 158.521 264.967 158.526 265.806 158.99L265.443 159.646L265.88 159.036C266.661 159.596 267.239 160.382 267.522 161.286C267.803 162.185 267.775 163.147 267.441 164.028C267.117 164.988 266.504 165.735 265.716 166.124C264.913 166.52 263.981 166.516 263.143 166.052L263.103 166.03L263.067 166.004C262.291 165.444 261.716 164.66 261.433 163.76C261.152 162.865 261.179 161.907 261.507 161.028C261.83 160.062 262.442 159.312 263.231 158.92ZM265.043 160.283C264.649 160.079 264.251 160.088 263.898 160.264C263.522 160.45 263.144 160.855 262.926 161.514L262.921 161.528L262.916 161.543C262.7 162.113 262.683 162.732 262.865 163.312C263.042 163.878 263.404 164.385 263.906 164.76C264.3 164.963 264.698 164.954 265.052 164.779C265.428 164.593 265.805 164.191 266.023 163.538L266.028 163.522L266.034 163.507C266.253 162.936 266.272 162.315 266.091 161.734C265.913 161.166 265.549 160.657 265.043 160.283Z" fill="#110151"/>
<path d="M273.849 164.264C272.593 163.575 271.137 164.264 270.597 165.906C270.323 166.636 270.302 167.43 270.536 168.172C270.77 168.914 271.248 169.567 271.9 170.035C273.157 170.735 274.613 170.035 275.153 168.415C275.43 167.682 275.454 166.884 275.219 166.138C274.985 165.391 274.505 164.735 273.849 164.264Z" fill="url(#paint25_linear)"/>
<path fill-rule="evenodd" clip-rule="evenodd" d="M271.622 163.539C272.43 163.139 273.367 163.144 274.21 163.606L273.849 164.264L274.287 163.655C275.07 164.217 275.65 165.006 275.935 165.913C276.218 166.815 276.192 167.78 275.859 168.666C275.535 169.628 274.919 170.378 274.127 170.768C273.319 171.166 272.381 171.161 271.536 170.691L271.498 170.67L271.463 170.645C270.683 170.085 270.105 169.3 269.821 168.398C269.537 167.5 269.562 166.54 269.889 165.657C270.213 164.685 270.829 163.931 271.622 163.539ZM273.45 164.901C273.05 164.696 272.645 164.706 272.287 164.883C271.908 165.071 271.528 165.478 271.31 166.141L271.305 166.155L271.299 166.17C271.084 166.743 271.067 167.364 271.251 167.946C271.431 168.515 271.795 169.025 272.301 169.4C272.701 169.609 273.105 169.599 273.464 169.422C273.845 169.235 274.224 168.829 274.441 168.178L274.446 168.163L274.451 168.149C274.67 167.573 274.688 166.948 274.504 166.362C274.324 165.79 273.959 165.278 273.45 164.901Z" fill="#110151"/>
<path d="M282.315 168.926C281.047 168.226 279.579 168.926 279.039 170.557C278.761 171.291 278.738 172.09 278.975 172.837C279.211 173.584 279.695 174.24 280.354 174.709C281.61 175.408 283.078 174.709 283.618 173.088C283.902 172.354 283.929 171.553 283.694 170.803C283.46 170.053 282.976 169.395 282.315 168.926Z" fill="url(#paint26_linear)"/>
<path fill-rule="evenodd" clip-rule="evenodd" d="M280.073 168.194C280.885 167.795 281.827 167.8 282.677 168.269L282.315 168.926L282.749 168.314C283.539 168.875 284.125 169.668 284.41 170.579C284.694 171.485 284.663 172.454 284.324 173.342C283.999 174.305 283.379 175.052 282.585 175.442C281.776 175.838 280.835 175.835 279.989 175.364L279.953 175.344L279.919 175.32C279.132 174.76 278.547 173.971 278.26 173.064C277.974 172.161 277.999 171.194 278.332 170.306C278.656 169.338 279.276 168.586 280.073 168.194ZM281.917 169.563C281.51 169.352 281.098 169.362 280.735 169.54C280.35 169.73 279.968 170.137 279.751 170.793L279.746 170.808L279.74 170.823C279.522 171.4 279.504 172.025 279.69 172.611C279.871 173.184 280.241 173.697 280.753 174.072C281.153 174.281 281.561 174.273 281.924 174.095C282.309 173.906 282.69 173.501 282.907 172.851L282.912 172.834L282.919 172.817C283.142 172.241 283.163 171.614 282.979 171.027C282.799 170.453 282.43 169.939 281.917 169.563Z" fill="#110151"/>
<path d="M290.828 173.61C289.548 172.91 288.08 173.61 287.54 175.241C287.255 175.976 287.229 176.779 287.466 177.529C287.703 178.279 288.191 178.937 288.855 179.404C290.123 180.103 291.603 179.404 292.143 177.783C292.429 177.046 292.455 176.242 292.218 175.49C291.981 174.738 291.494 174.078 290.828 173.61Z" fill="url(#paint27_linear)"/>
<path fill-rule="evenodd" clip-rule="evenodd" d="M288.577 172.878C289.39 172.479 290.334 172.485 291.188 172.951L290.828 173.61L291.26 172.996C292.055 173.557 292.645 174.35 292.934 175.265C293.22 176.174 293.19 177.147 292.849 178.037C292.523 179.002 291.898 179.749 291.1 180.138C290.288 180.533 289.343 180.529 288.493 180.06L288.458 180.041L288.424 180.017C287.63 179.459 287.04 178.667 286.751 177.755C286.465 176.848 286.494 175.877 286.834 174.988C287.159 174.02 287.779 173.269 288.577 172.878ZM290.432 174.249C290.018 174.035 289.602 174.046 289.237 174.225C288.851 174.414 288.469 174.821 288.252 175.477L288.246 175.495L288.24 175.512C288.016 176.089 287.996 176.716 288.182 177.303C288.363 177.878 288.735 178.392 289.252 178.765C289.659 178.977 290.075 178.968 290.444 178.789C290.833 178.6 291.216 178.194 291.431 177.546L291.437 177.529L291.444 177.512C291.668 176.934 291.689 176.304 291.503 175.715C291.321 175.139 290.949 174.624 290.432 174.249Z" fill="#110151"/>
<path d="M299.399 178.327C298.119 177.617 296.639 178.327 296.088 179.959C295.806 180.696 295.781 181.499 296.018 182.25C296.254 183.001 296.74 183.661 297.403 184.132C298.694 184.843 300.174 184.132 300.725 182.512C301.009 181.772 301.033 180.965 300.794 180.212C300.555 179.458 300.066 178.797 299.399 178.327Z" fill="url(#paint28_linear)"/>
<path fill-rule="evenodd" clip-rule="evenodd" d="M297.141 177.591C297.958 177.191 298.906 177.196 299.763 177.671L299.399 178.327L299.831 177.714C300.627 178.275 301.219 179.07 301.509 179.985C301.798 180.897 301.77 181.872 301.431 182.767C301.099 183.73 300.472 184.481 299.669 184.871C298.851 185.268 297.901 185.262 297.041 184.789L297.003 184.768L296.968 184.743C296.177 184.181 295.59 183.388 295.302 182.476C295.016 181.567 295.044 180.596 295.382 179.704C295.713 178.736 296.339 177.983 297.141 177.591ZM299.001 178.964C298.588 178.748 298.17 178.757 297.8 178.938C297.408 179.13 297.02 179.542 296.798 180.199L296.793 180.213L296.788 180.227C296.566 180.806 296.547 181.435 296.733 182.025C296.915 182.601 297.285 183.117 297.801 183.495C298.22 183.712 298.642 183.702 299.014 183.521C299.407 183.33 299.794 182.92 300.015 182.27L300.02 182.256L300.025 182.243C300.248 181.662 300.267 181.03 300.079 180.438C299.895 179.859 299.521 179.342 299.001 178.964Z" fill="#110151"/>
<path d="M308.029 183.067C306.737 182.356 305.246 183.067 304.694 184.698C304.413 185.441 304.391 186.249 304.632 187.005C304.873 187.76 305.364 188.422 306.033 188.894C307.324 189.604 308.815 188.894 309.367 187.273C309.651 186.529 309.675 185.718 309.433 184.961C309.192 184.203 308.7 183.539 308.029 183.067Z" fill="url(#paint29_linear)"/>
<path fill-rule="evenodd" clip-rule="evenodd" d="M305.757 182.329C306.577 181.931 307.529 181.936 308.39 182.409L308.426 182.429L308.46 182.453C309.261 183.017 309.856 183.814 310.148 184.733C310.439 185.649 310.413 186.629 310.073 187.528C309.741 188.494 309.109 189.244 308.303 189.633C307.484 190.029 306.532 190.025 305.671 189.551L305.634 189.531L305.6 189.507C304.803 188.944 304.21 188.149 303.917 187.233C303.626 186.32 303.651 185.342 303.988 184.445C304.32 183.475 304.95 182.721 305.757 182.329ZM306.411 183.679C306.015 183.871 305.626 184.284 305.405 184.939L305.4 184.951L305.395 184.964C305.174 185.549 305.157 186.183 305.346 186.777C305.532 187.358 305.908 187.877 306.43 188.256C306.849 188.473 307.275 188.464 307.651 188.282C308.048 188.091 308.436 187.68 308.657 187.032L308.662 187.019L308.667 187.006C308.89 186.42 308.908 185.784 308.719 185.188C308.533 184.605 308.156 184.084 307.632 183.705C307.213 183.487 306.787 183.497 306.411 183.679Z" fill="#110151"/>
<path d="M252.844 167.594C251.6 166.905 250.167 167.594 249.639 169.203C249.364 169.927 249.34 170.716 249.57 171.454C249.8 172.192 250.272 172.842 250.919 173.31C252.152 173.998 253.584 173.31 254.124 171.701C254.397 170.976 254.42 170.188 254.19 169.45C253.96 168.713 253.489 168.063 252.844 167.594Z" fill="url(#paint30_linear)"/>
<path fill-rule="evenodd" clip-rule="evenodd" d="M250.64 166.865C251.44 166.468 252.369 166.474 253.207 166.937L252.844 167.594L253.285 166.987C254.056 167.548 254.627 168.33 254.906 169.227C255.185 170.121 255.158 171.075 254.831 171.952C254.507 172.907 253.898 173.651 253.114 174.039C252.315 174.435 251.387 174.431 250.553 173.965L250.515 173.943L250.479 173.917C249.706 173.358 249.134 172.575 248.854 171.677C248.576 170.784 248.603 169.83 248.932 168.953C249.249 167.998 249.856 167.253 250.64 166.865ZM252.442 168.229C252.048 168.026 251.654 168.036 251.306 168.209C250.935 168.392 250.564 168.791 250.351 169.437L250.346 169.453L250.34 169.469C250.125 170.037 250.106 170.653 250.286 171.231C250.462 171.795 250.821 172.301 251.321 172.675C251.708 172.877 252.099 172.868 252.448 172.695C252.821 172.51 253.195 172.11 253.413 171.462L253.417 171.449L253.422 171.436C253.636 170.868 253.654 170.251 253.474 169.674C253.299 169.11 252.941 168.604 252.442 168.229Z" fill="#110151"/>
<path d="M261.204 172.222C259.959 171.534 258.515 172.222 257.986 173.843C257.714 174.567 257.69 175.355 257.92 176.093C258.15 176.831 258.621 177.481 259.266 177.95C260.511 178.649 261.955 177.95 262.483 176.351C262.762 175.624 262.788 174.831 262.558 174.089C262.328 173.346 261.853 172.693 261.204 172.222Z" fill="url(#paint31_linear)"/>
<path fill-rule="evenodd" clip-rule="evenodd" d="M258.994 171.495C259.796 171.097 260.728 171.102 261.567 171.566L261.204 172.222L261.643 171.615C262.42 172.177 262.994 172.964 263.274 173.867C263.552 174.765 263.523 175.723 263.19 176.603C262.871 177.554 262.261 178.297 261.475 178.685C260.673 179.08 259.739 179.076 258.899 178.603L258.861 178.582L258.825 178.556C258.054 177.996 257.484 177.213 257.204 176.316C256.926 175.424 256.953 174.47 257.279 173.594C257.596 172.632 258.206 171.884 258.994 171.495ZM260.802 172.858C260.409 172.654 260.011 172.665 259.659 172.839C259.286 173.024 258.912 173.424 258.7 174.075L258.694 174.091L258.688 174.107C258.474 174.676 258.456 175.292 258.636 175.87C258.812 176.434 259.171 176.941 259.671 177.316C260.063 177.522 260.46 177.513 260.812 177.339C261.187 177.154 261.56 176.755 261.771 176.116L261.777 176.099L261.783 176.083C262.001 175.512 262.022 174.892 261.841 174.311C261.665 173.743 261.305 173.234 260.802 172.858Z" fill="#110151"/>
<path d="M269.587 176.884C268.331 176.185 266.886 176.884 266.346 178.494C266.069 179.222 266.045 180.015 266.277 180.758C266.509 181.501 266.986 182.154 267.638 182.623C268.894 183.322 270.35 182.623 270.879 181.024C271.16 180.294 271.187 179.498 270.955 178.753C270.722 178.008 270.243 177.353 269.587 176.884Z" fill="url(#paint32_linear)"/>
<path fill-rule="evenodd" clip-rule="evenodd" d="M267.367 176.15C268.172 175.753 269.107 175.759 269.952 176.229L269.587 176.884L270.023 176.274C270.807 176.834 271.388 177.623 271.671 178.53C271.952 179.431 271.921 180.394 271.585 181.277C271.265 182.23 270.651 182.972 269.861 183.359C269.055 183.753 268.118 183.748 267.273 183.278L267.235 183.257L267.2 183.231C266.421 182.671 265.844 181.885 265.561 180.982C265.28 180.083 265.308 179.123 265.64 178.241C265.964 177.286 266.577 176.539 267.367 176.15ZM269.187 177.52C268.787 177.311 268.385 177.321 268.03 177.496C267.652 177.682 267.275 178.085 267.057 178.732L267.053 178.746L267.047 178.76C266.83 179.332 266.811 179.952 266.993 180.534C267.171 181.103 267.534 181.612 268.039 181.987C268.439 182.196 268.844 182.186 269.202 182.011C269.581 181.826 269.956 181.426 270.166 180.789L270.172 180.771L270.179 180.754C270.4 180.182 270.421 179.56 270.239 178.976C270.061 178.406 269.695 177.895 269.187 177.52Z" fill="#110151"/>
<path d="M278.029 181.546C276.761 180.847 275.294 181.546 274.754 183.155C274.479 183.89 274.458 184.688 274.695 185.434C274.931 186.18 275.412 186.836 276.069 187.307C277.325 188.006 278.781 187.307 279.321 185.708C279.601 184.975 279.627 184.176 279.394 183.428C279.162 182.679 278.684 182.02 278.029 181.546Z" fill="url(#paint33_linear)"/>
<path fill-rule="evenodd" clip-rule="evenodd" d="M275.79 180.811C276.6 180.416 277.542 180.421 278.392 180.889L278.029 181.546L278.469 180.939C279.251 181.505 279.829 182.297 280.111 183.205C280.391 184.11 280.362 185.076 280.027 185.962C279.701 186.915 279.084 187.657 278.292 188.043C277.486 188.437 276.549 188.432 275.704 187.962L275.666 187.941L275.631 187.916C274.848 187.354 274.267 186.566 273.98 185.66C273.694 184.758 273.718 183.793 274.047 182.905C274.372 181.944 274.994 181.198 275.79 180.811ZM277.628 182.182C277.222 181.972 276.811 181.982 276.447 182.159C276.061 182.347 275.68 182.751 275.465 183.394L275.461 183.406L275.456 183.418C275.24 183.996 275.224 184.621 275.41 185.207C275.591 185.781 275.959 186.293 276.469 186.671C276.869 186.88 277.274 186.871 277.634 186.695C278.016 186.509 278.394 186.108 278.61 185.468L278.615 185.455L278.62 185.441C278.84 184.864 278.86 184.238 278.678 183.65C278.5 183.076 278.136 182.562 277.628 182.182Z" fill="#110151"/>
<path d="M286.507 186.286C285.239 185.575 283.771 186.286 283.219 187.895C282.942 188.631 282.92 189.431 283.157 190.18C283.393 190.928 283.876 191.586 284.535 192.057C285.803 192.768 287.27 192.057 287.822 190.459C288.1 189.722 288.123 188.919 287.886 188.169C287.65 187.419 287.167 186.759 286.507 186.286Z" fill="url(#paint34_linear)"/>
<path fill-rule="evenodd" clip-rule="evenodd" d="M284.266 185.546C285.078 185.15 286.022 185.154 286.874 185.631L286.91 185.652L286.944 185.676C287.731 186.241 288.315 187.033 288.602 187.944C288.888 188.851 288.861 189.822 288.528 190.714C288.196 191.667 287.571 192.412 286.774 192.799C285.963 193.193 285.02 193.189 284.168 192.712L284.132 192.691L284.098 192.667C283.312 192.105 282.728 191.314 282.441 190.406C282.155 189.5 282.181 188.531 282.514 187.641C282.845 186.683 283.468 185.935 284.266 185.546ZM284.924 186.894C284.535 187.084 284.151 187.492 283.929 188.138L283.925 188.149L283.921 188.16C283.703 188.738 283.686 189.366 283.872 189.954C284.054 190.529 284.423 191.044 284.936 191.422C285.341 191.636 285.752 191.627 286.119 191.449C286.508 191.26 286.892 190.855 287.113 190.214L287.117 190.204L287.12 190.194C287.339 189.614 287.357 188.984 287.171 188.394C286.989 187.817 286.619 187.3 286.105 186.921C285.7 186.707 285.29 186.716 284.924 186.894Z" fill="#110151"/>
<path d="M295.113 191.036C293.833 190.326 292.354 191.036 291.802 192.646C291.523 193.384 291.501 194.188 291.74 194.938C291.979 195.689 292.465 196.348 293.129 196.819C294.408 197.541 295.888 196.819 296.428 195.221C296.711 194.482 296.736 193.677 296.499 192.924C296.262 192.171 295.777 191.509 295.113 191.036Z" fill="url(#paint35_linear)"/>
<path fill-rule="evenodd" clip-rule="evenodd" d="M292.857 190.296C293.673 189.901 294.621 189.905 295.477 190.38L295.113 191.036L295.548 190.425C296.34 190.99 296.927 191.785 297.215 192.699C297.501 193.609 297.472 194.582 297.134 195.475C296.808 196.429 296.183 197.177 295.383 197.565C294.568 197.96 293.618 197.956 292.76 197.472L292.726 197.453L292.695 197.431C291.903 196.869 291.315 196.077 291.025 195.166C290.736 194.257 290.762 193.285 291.096 192.392C291.428 191.432 292.056 190.684 292.857 190.296ZM294.713 191.673C294.301 191.457 293.883 191.466 293.511 191.646C293.118 191.836 292.732 192.244 292.511 192.889L292.508 192.9L292.503 192.911C292.284 193.491 292.267 194.121 292.455 194.711C292.639 195.289 293.012 195.806 293.53 196.184C293.941 196.403 294.358 196.395 294.728 196.215C295.119 196.025 295.502 195.618 295.717 194.981L295.722 194.967L295.728 194.953C295.95 194.371 295.969 193.74 295.784 193.149C295.602 192.57 295.23 192.052 294.713 191.673Z" fill="#110151"/>
<path d="M303.638 195.809C302.358 195.099 300.867 195.809 300.327 197.418C300.042 198.16 300.018 198.968 300.257 199.724C300.496 200.479 300.985 201.142 301.654 201.614C302.933 202.336 304.425 201.614 304.976 200.016C305.259 199.271 305.281 198.461 305.04 197.704C304.799 196.947 304.308 196.283 303.638 195.809Z" fill="url(#paint36_linear)"/>
<path fill-rule="evenodd" clip-rule="evenodd" d="M301.379 195.068C302.195 194.674 303.145 194.678 304.002 195.153L303.638 195.809L304.071 195.197C304.869 195.761 305.463 196.559 305.755 197.477C306.046 198.392 306.02 199.372 305.682 200.271C305.349 201.227 304.717 201.973 303.914 202.361C303.096 202.754 302.144 202.752 301.285 202.267L301.252 202.249L301.221 202.227C300.424 201.663 299.832 200.867 299.542 199.95C299.253 199.037 299.281 198.06 299.621 197.165C299.948 196.203 300.577 195.456 301.379 195.068ZM303.239 196.446C302.827 196.23 302.405 196.238 302.031 196.419C301.637 196.609 301.253 197.017 301.038 197.657L301.033 197.672L301.027 197.687C300.803 198.27 300.784 198.904 300.972 199.497C301.156 200.08 301.532 200.599 302.054 200.978C302.465 201.198 302.886 201.191 303.262 201.009C303.66 200.818 304.047 200.408 304.268 199.771L304.271 199.76L304.275 199.75C304.497 199.163 304.515 198.527 304.325 197.931C304.14 197.348 303.763 196.827 303.239 196.446Z" fill="#110151"/>
<path d="M192.211 180.325L7.35437 173.388L1.28406 170.713L47.5687 7.59115L241.948 1.453L245.247 6.72537L192.211 180.325Z" fill="url(#paint37_linear)"/>
<path fill-rule="evenodd" clip-rule="evenodd" d="M241.924 0.703363C242.191 0.694939 242.442 0.8289 242.584 1.05513L245.883 6.3275C245.998 6.51165 246.028 6.73673 245.965 6.94449L192.929 180.544C192.829 180.869 192.523 181.087 192.183 181.074L7.32624 174.137C7.23164 174.134 7.13856 174.112 7.05193 174.074L0.98161 171.399C0.639203 171.248 0.460394 170.868 0.562533 170.508L46.8472 7.38641C46.9364 7.0722 47.2186 6.85182 47.5451 6.84151L241.924 0.703363ZM48.1406 8.32345L2.18372 170.289L7.52568 172.644L191.663 179.554L244.43 6.83328L241.541 2.21622L48.1406 8.32345Z" fill="#110151"/>
<path d="M244.966 207.741L50.1639 198.762L18.6029 184.41L208.25 192.135L244.966 207.741Z" fill="url(#paint38_linear)"/>
<path fill-rule="evenodd" clip-rule="evenodd" d="M17.8733 184.236C17.9564 183.887 18.275 183.646 18.6334 183.66L208.281 191.386C208.371 191.389 208.46 191.409 208.544 191.445L245.259 207.051C245.593 207.193 245.778 207.554 245.697 207.908C245.616 208.262 245.294 208.507 244.931 208.49L50.1293 199.511C50.0339 199.506 49.9403 199.484 49.8534 199.444L18.2924 185.092C17.9659 184.944 17.7902 184.585 17.8733 184.236ZM22.4061 185.315L50.3427 198.019L240.834 206.8L208.083 192.879L22.4061 185.315Z" fill="#110151"/>
<path d="M208.25 192.135L18.6027 184.41L1.28406 170.713L188.137 177.328L208.25 192.135Z" fill="url(#paint39_linear)"/>
<path fill-rule="evenodd" clip-rule="evenodd" d="M0.580114 170.454C0.691963 170.15 0.98663 169.952 1.31059 169.963L188.164 176.578C188.314 176.584 188.46 176.635 188.582 176.724L208.695 191.531C208.96 191.727 209.067 192.072 208.958 192.383C208.849 192.695 208.549 192.898 208.22 192.884L18.5721 185.159C18.4138 185.153 18.2617 185.096 18.1374 184.998L0.818812 171.301C0.564554 171.1 0.468266 170.758 0.580114 170.454ZM3.54312 171.543L18.8767 183.67L205.832 191.286L187.879 178.069L3.54312 171.543Z" fill="#110151"/>
<path d="M54.9074 28.714L20.1997 150.345L179.989 154.607L219.428 24.9401L54.9074 28.714Z" fill="url(#paint40_linear)"/>
<path fill-rule="evenodd" clip-rule="evenodd" d="M220.026 24.4866C220.171 24.6783 220.216 24.9281 220.146 25.1583L180.706 154.825C180.608 155.148 180.306 155.366 179.969 155.357L20.1797 151.094C19.948 151.088 19.7322 150.975 19.5951 150.788C19.4579 150.602 19.4149 150.362 19.4785 150.139L54.1861 28.5082C54.2763 28.1922 54.5617 27.9717 54.8902 27.9642L219.411 24.1903C219.652 24.1847 219.88 24.295 220.026 24.4866ZM55.477 29.4511L21.1862 149.621L179.437 153.842L218.409 25.7136L55.477 29.4511Z" fill="#110151"/>
<path d="M59.5338 37.2829L39.3855 108.632L59.5221 108.721L80.0931 36.6169L59.5338 37.2829Z" fill="#E5E4EB"/>
<path d="M80.0927 36.617L59.5218 108.721L80.081 108.81L101.086 35.9399L80.0927 36.617Z" fill="#FFDE3B"/>
<path d="M101.087 35.9399L80.0816 108.81L101.075 108.909L122.539 35.2517L101.087 35.9399Z" fill="#48DDF7"/>
<path d="M122.538 35.2517L101.075 108.909L122.527 109.009L144.46 34.5413L122.538 35.2517Z" fill="#1BBA1A"/>
<path d="M144.46 34.5413L122.527 109.009L144.448 109.098L166.862 33.8198L144.46 34.5413Z" fill="#FF5CAE"/>
<path d="M166.862 33.8199L144.448 109.098L166.85 109.209L189.77 33.0762L166.862 33.8199Z" fill="#E03053"/>
<path d="M189.77 33.0762L166.85 109.209L189.758 109.309L213.194 32.3214L189.77 33.0762Z" fill="#3E3DFE"/>
<path d="M39.3852 108.632L35.9684 120.753L56.0228 120.975L59.5217 108.721L39.3852 108.632Z" fill="#3E3DFE"/>
<path d="M59.5223 108.721L56.0234 120.975L64.442 121.064L76.5122 121.197L80.0816 108.809L59.5223 108.721Z" fill="#201551"/>
<path d="M80.0812 108.81L76.5118 121.197L97.435 121.419L101.075 108.909L80.0812 108.81Z" fill="#FF5CAE"/>
<path d="M101.075 108.909L97.4351 121.419L105.196 121.508L118.793 121.663L122.527 109.009L101.075 108.909Z" fill="#201551"/>
<path d="M122.526 109.009L118.793 121.663L133.317 121.818L140.643 121.896L144.448 109.098L122.526 109.009Z" fill="#48DDF7"/>
<path d="M144.447 109.098L140.643 121.896L162.952 122.14L166.85 109.209L144.447 109.098Z" fill="#201551"/>
<path d="M166.85 109.209L162.952 122.14L172.087 122.229L185.777 122.384L189.757 109.309L166.85 109.209Z" fill="white"/>
<path d="M56.023 120.975L35.9687 120.753L28.9355 145.661L57.2089 146.338L64.4416 121.064L56.023 120.975Z" fill="#2928A8"/>
<path d="M97.4355 121.419L76.5122 121.197L64.4421 121.064L57.2093 146.338L97.6468 147.314L105.197 121.508L97.4355 121.419Z" fill="white"/>
<path d="M118.793 121.663L105.196 121.508L97.6466 147.314L125.568 147.98L133.317 121.818L118.793 121.663Z" fill="#841FA1"/>
<path d="M140.643 121.896L133.317 121.818L125.567 147.98L154.968 148.68L162.952 122.14L140.643 121.896Z" fill="#201551"/>
<path d="M172.087 122.229L164.021 148.902L177.606 149.224L185.778 122.384L172.087 122.229Z" fill="#201551"/>
<path d="M162.953 122.14L154.968 148.68L164.021 148.902L172.087 122.229L162.953 122.14Z" fill="#E5E4EB"/>
<path fill-rule="evenodd" clip-rule="evenodd" d="M213.815 33.345C213.96 33.5365 214.004 33.7858 213.935 34.0156L178.675 150.096C178.577 150.419 178.276 150.637 177.939 150.628L27.8129 146.888C27.5809 146.882 27.3646 146.769 27.2272 146.582C27.0898 146.395 27.0467 146.155 27.1105 145.932L58.3779 36.6215C58.4685 36.3049 58.755 36.0844 59.0843 36.0779L213.202 33.0477C213.442 33.043 213.67 33.1535 213.815 33.345ZM59.6677 37.5668L28.8192 145.412L177.406 149.114L212.199 34.5677L59.6677 37.5668Z" fill="#110151"/>
<path fill-rule="evenodd" clip-rule="evenodd" d="M58.4328 37.1721L54.2411 29.0582L55.5737 28.3698L59.7654 36.4836L58.4328 37.1721Z" fill="#110151"/>
<path fill-rule="evenodd" clip-rule="evenodd" d="M19.8493 149.688L27.4694 145.492L28.1929 146.806L20.5727 151.002L19.8493 149.688Z" fill="#110151"/>
<path fill-rule="evenodd" clip-rule="evenodd" d="M178.646 149.593L180.678 154.31L179.3 154.904L177.269 150.186L178.646 149.593Z" fill="#110151"/>
<path fill-rule="evenodd" clip-rule="evenodd" d="M212.602 33.3785L218.814 24.5098L220.042 25.3703L213.831 34.239L212.602 33.3785Z" fill="#110151"/>
<path fill-rule="evenodd" clip-rule="evenodd" d="M186.405 122.768L35.093 121.503L35.1055 120.003L186.417 121.268L186.405 122.768Z" fill="#110151"/>
<path fill-rule="evenodd" clip-rule="evenodd" d="M189.754 110.059L39.3934 109.382L39.4002 107.882L189.761 108.559L189.754 110.059Z" fill="#110151"/>
<path fill-rule="evenodd" clip-rule="evenodd" d="M55.3127 120.714L79.3709 36.4111L80.8133 36.8228L56.7551 121.125L55.3127 120.714Z" fill="#110151"/>
<path fill-rule="evenodd" clip-rule="evenodd" d="M75.8611 120.712L100.342 35.7986L101.783 36.2142L77.3024 121.127L75.8611 120.712Z" fill="#110151"/>
<path fill-rule="evenodd" clip-rule="evenodd" d="M96.8557 120.71L121.759 35.0754L123.2 35.4943L98.296 121.129L96.8557 120.71Z" fill="#110151"/>
<path fill-rule="evenodd" clip-rule="evenodd" d="M118.131 121.24L143.551 34.9398L144.99 35.3637L119.57 121.664L118.131 121.24Z" fill="#110151"/>
<path fill-rule="evenodd" clip-rule="evenodd" d="M139.995 121.427L165.873 34.5048L167.311 34.9328L141.433 121.855L139.995 121.427Z" fill="#110151"/>
<path fill-rule="evenodd" clip-rule="evenodd" d="M154.25 148.463L188.687 34.0587L190.123 34.491L155.686 148.896L154.25 148.463Z" fill="#110151"/>
<path fill-rule="evenodd" clip-rule="evenodd" d="M163.302 148.685L171.369 122.012L172.805 122.446L164.738 149.119L163.302 148.685Z" fill="#110151"/>
<path fill-rule="evenodd" clip-rule="evenodd" d="M124.849 147.765L132.775 121.358L134.211 121.79L126.286 148.196L124.849 147.765Z" fill="#110151"/>
<path fill-rule="evenodd" clip-rule="evenodd" d="M96.9265 147.102L104.594 121.129L106.032 121.553L98.3651 147.527L96.9265 147.102Z" fill="#110151"/>
<path fill-rule="evenodd" clip-rule="evenodd" d="M56.4737 146.137L63.4951 120.797L64.9407 121.197L57.9193 146.538L56.4737 146.137Z" fill="#110151"/>
<path d="M265.137 7.94635L208.25 192.135L244.966 207.741L298.518 37.0387L265.137 7.94635Z" fill="url(#paint41_linear)"/>
<path d="M241.948 1.453L188.137 177.328L208.25 192.135L265.138 7.94634L241.948 1.453Z" fill="url(#paint42_linear)"/>
<path fill-rule="evenodd" clip-rule="evenodd" d="M241.231 1.23357C241.35 0.844153 241.758 0.620968 242.15 0.730775L265.34 7.22411C265.447 7.25415 265.546 7.30772 265.63 7.38093L299.011 36.4733C299.236 36.669 299.323 36.979 299.234 37.2632L245.681 207.966C245.618 208.168 245.472 208.334 245.28 208.422C245.088 208.511 244.867 208.514 244.672 208.432L207.957 192.825C207.903 192.803 207.853 192.774 207.806 192.739L187.693 177.932C187.436 177.743 187.327 177.413 187.42 177.109L241.231 1.23357ZM242.451 2.37267L189.01 177.039L208.624 191.479L244.498 206.727L297.656 37.282L264.772 8.62292L242.451 2.37267Z" fill="#110151"/>
<path style="mix-blend-mode:overlay" d="M54.79 146.815L110.186 148.191L51.068 64.899L35.4402 119.543L54.79 146.815Z" fill="url(#paint43_linear)"/>
<path style="mix-blend-mode:overlay" d="M155.144 34.9409L101.486 35.9954L179.261 145.594L195.57 91.9047L155.144 34.9409Z" fill="url(#paint44_linear)"/>
<path d="M191.096 214.379L38.9854 207.508L30.3555 205.355L34.1245 185.076L192.199 191.513L194.125 194.055L191.096 214.379Z" fill="url(#paint45_linear)"/>
<path fill-rule="evenodd" clip-rule="evenodd" d="M33.3871 184.939C33.4553 184.572 33.7824 184.311 34.155 184.326L192.23 190.764C192.454 190.773 192.662 190.882 192.797 191.061L194.723 193.602C194.845 193.763 194.896 193.966 194.867 194.166L191.837 214.489C191.781 214.87 191.446 215.145 191.062 215.128L38.9516 208.257C38.9018 208.255 38.8523 208.248 38.8039 208.236L30.1739 206.082C29.7892 205.986 29.5457 205.608 29.6181 205.218L33.3871 184.939ZM34.7431 185.851L31.2218 204.798L39.0942 206.762L190.454 213.599L193.337 194.257L191.815 192.248L34.7431 185.851Z" fill="#110151"/>
<path d="M192.199 191.513L187.937 213.102L222.809 227.732L227.341 206.931L192.199 191.513Z" fill="url(#paint46_linear)"/>
<path style="mix-blend-mode:multiply" d="M227.342 206.931L192.458 191.636L192.141 192.679L212.313 207.63L225.921 213.48L227.342 206.931Z" fill="url(#paint47_linear)"/>
<path fill-rule="evenodd" clip-rule="evenodd" d="M191.852 190.849C192.054 190.743 192.292 190.735 192.501 190.827L227.515 206.188L231.955 206.393L231.886 207.891L227.307 207.68C227.215 207.676 227.124 207.655 227.04 207.618L192.754 192.576L188.791 212.648L223.099 227.04L222.519 228.423L187.647 213.794C187.319 213.656 187.132 213.307 187.201 212.957L191.463 191.368C191.507 191.145 191.65 190.954 191.852 190.849Z" fill="#110151"/>
<path d="M187.937 213.102L30.3555 205.355L111.947 240.119L280.589 250.453L187.937 213.102Z" fill="url(#paint48_linear)"/>
<path fill-rule="evenodd" clip-rule="evenodd" d="M29.6245 205.187C29.7059 204.833 30.0294 204.588 30.3923 204.606L187.974 212.353C188.058 212.357 188.14 212.375 188.218 212.407L280.869 249.757C281.21 249.895 281.401 250.259 281.32 250.618C281.239 250.977 280.91 251.224 280.543 251.201L111.901 240.868C111.815 240.862 111.731 240.843 111.653 240.809L30.0615 206.045C29.7273 205.902 29.5431 205.541 29.6245 205.187ZM34.5107 206.31L112.122 239.378L276.025 249.422L187.774 213.845L34.5107 206.31Z" fill="#110151"/>
<path fill-rule="evenodd" clip-rule="evenodd" d="M207.534 191.914L264.409 7.72507L265.842 8.16763L208.967 192.356L207.534 191.914Z" fill="#110151"/>
<defs>
<linearGradient id="paint0_linear" x1="188.02" y1="190.603" x2="347.738" y2="102.336" gradientUnits="userSpaceOnUse">
<stop stop-color="#E3D4FF"/>
<stop offset="0.99" stop-color="#AC85F2"/>
<stop offset="1" stop-color="#AC85F2"/>
</linearGradient>
<linearGradient id="paint1_linear" x1="250.766" y1="58.5944" x2="270.997" y2="232.337" gradientUnits="userSpaceOnUse">
<stop stop-color="#E3D4FF" stop-opacity="0"/>
<stop offset="0.99" stop-color="#AC85F2"/>
</linearGradient>
<linearGradient id="paint2_linear" x1="272.522" y1="139.456" x2="283.998" y2="206.879" gradientUnits="userSpaceOnUse">
<stop stop-color="#6821FF"/>
<stop offset="1" stop-color="#2201A1"/>
</linearGradient>
<linearGradient id="paint3_linear" x1="1471.39" y1="902.615" x2="1556.1" y2="1278.41" gradientUnits="userSpaceOnUse">
<stop stop-color="#6821FF"/>
<stop offset="1" stop-color="#2201A1"/>
</linearGradient>
<linearGradient id="paint4_linear" x1="1517.88" y1="903.303" x2="1603.07" y2="1281.78" gradientUnits="userSpaceOnUse">
<stop stop-color="#6821FF"/>
<stop offset="1" stop-color="#2201A1"/>
</linearGradient>
<linearGradient id="paint5_linear" x1="1566.6" y1="903.97" x2="1652.16" y2="1285.11" gradientUnits="userSpaceOnUse">
<stop stop-color="#6821FF"/>
<stop offset="1" stop-color="#2201A1"/>
</linearGradient>
<linearGradient id="paint6_linear" x1="1615.32" y1="904.516" x2="1701.31" y2="1288.39" gradientUnits="userSpaceOnUse">
<stop stop-color="#6821FF"/>
<stop offset="1" stop-color="#2201A1"/>
</linearGradient>
<linearGradient id="paint7_linear" x1="1667.2" y1="905.557" x2="1753.53" y2="1292.58" gradientUnits="userSpaceOnUse">
<stop stop-color="#6821FF"/>
<stop offset="1" stop-color="#2201A1"/>
</linearGradient>
<linearGradient id="paint8_linear" x1="1717.32" y1="905.277" x2="1803.92" y2="1294.59" gradientUnits="userSpaceOnUse">
<stop stop-color="#6821FF"/>
<stop offset="1" stop-color="#2201A1"/>
</linearGradient>
<linearGradient id="paint9_linear" x1="1388.82" y1="919.834" x2="1473.18" y2="1292.06" gradientUnits="userSpaceOnUse">
<stop stop-color="#6821FF"/>
<stop offset="1" stop-color="#2201A1"/>
</linearGradient>
<linearGradient id="paint10_linear" x1="1434.71" y1="919.496" x2="1519.29" y2="1293.96" gradientUnits="userSpaceOnUse">
<stop stop-color="#6821FF"/>
<stop offset="1" stop-color="#2201A1"/>
</linearGradient>
<linearGradient id="paint11_linear" x1="1481.94" y1="921.471" x2="1567.18" y2="1299.12" gradientUnits="userSpaceOnUse">
<stop stop-color="#6821FF"/>
<stop offset="1" stop-color="#2201A1"/>
</linearGradient>
<linearGradient id="paint12_linear" x1="1530.74" y1="923.178" x2="1616.54" y2="1304.09" gradientUnits="userSpaceOnUse">
<stop stop-color="#6821FF"/>
<stop offset="1" stop-color="#2201A1"/>
</linearGradient>
<linearGradient id="paint13_linear" x1="1578.53" y1="923.767" x2="1664.69" y2="1307.26" gradientUnits="userSpaceOnUse">
<stop stop-color="#6821FF"/>
<stop offset="1" stop-color="#2201A1"/>
</linearGradient>
<linearGradient id="paint14_linear" x1="1629.75" y1="923.627" x2="1716.06" y2="1309.53" gradientUnits="userSpaceOnUse">
<stop stop-color="#6821FF"/>
<stop offset="1" stop-color="#2201A1"/>
</linearGradient>
<linearGradient id="paint15_linear" x1="1679.42" y1="923.304" x2="1765.98" y2="1311.67" gradientUnits="userSpaceOnUse">
<stop stop-color="#6821FF"/>
<stop offset="1" stop-color="#2201A1"/>
</linearGradient>
<linearGradient id="paint16_linear" x1="1353.61" y1="937.22" x2="1437.92" y2="1308.5" gradientUnits="userSpaceOnUse">
<stop stop-color="#6821FF"/>
<stop offset="1" stop-color="#2201A1"/>
</linearGradient>
<linearGradient id="paint17_linear" x1="1398.81" y1="939.096" x2="1483.8" y2="1313.41" gradientUnits="userSpaceOnUse">
<stop stop-color="#6821FF"/>
<stop offset="1" stop-color="#2201A1"/>
</linearGradient>
<linearGradient id="paint18_linear" x1="1446.01" y1="939.668" x2="1531.27" y2="1316.64" gradientUnits="userSpaceOnUse">
<stop stop-color="#6821FF"/>
<stop offset="1" stop-color="#2201A1"/>
</linearGradient>
<linearGradient id="paint19_linear" x1="1493.46" y1="939.692" x2="1578.96" y2="1319.05" gradientUnits="userSpaceOnUse">
<stop stop-color="#6821FF"/>
<stop offset="1" stop-color="#2201A1"/>
</linearGradient>
<linearGradient id="paint20_linear" x1="1542.08" y1="939.606" x2="1627.81" y2="1321.39" gradientUnits="userSpaceOnUse">
<stop stop-color="#6821FF"/>
<stop offset="1" stop-color="#2201A1"/>
</linearGradient>
<linearGradient id="paint21_linear" x1="1591.77" y1="941.556" x2="1678.12" y2="1326.62" gradientUnits="userSpaceOnUse">
<stop stop-color="#6821FF"/>
<stop offset="1" stop-color="#2201A1"/>
</linearGradient>
<linearGradient id="paint22_linear" x1="1642.76" y1="940.573" x2="1729.12" y2="1327.83" gradientUnits="userSpaceOnUse">
<stop stop-color="#6821FF"/>
<stop offset="1" stop-color="#2201A1"/>
</linearGradient>
<linearGradient id="paint23_linear" x1="1318.64" y1="954.956" x2="1403.04" y2="1325.53" gradientUnits="userSpaceOnUse">
<stop stop-color="#6821FF"/>
<stop offset="1" stop-color="#2201A1"/>
</linearGradient>
<linearGradient id="paint24_linear" x1="1363.59" y1="955.922" x2="1448.45" y2="1329.11" gradientUnits="userSpaceOnUse">
<stop stop-color="#6821FF"/>
<stop offset="1" stop-color="#2201A1"/>
</linearGradient>
<linearGradient id="paint25_linear" x1="1410.02" y1="957.372" x2="1495.32" y2="1333.47" gradientUnits="userSpaceOnUse">
<stop stop-color="#6821FF"/>
<stop offset="1" stop-color="#2201A1"/>
</linearGradient>
<linearGradient id="paint26_linear" x1="1458.04" y1="957.407" x2="1543.52" y2="1335.99" gradientUnits="userSpaceOnUse">
<stop stop-color="#6821FF"/>
<stop offset="1" stop-color="#2201A1"/>
</linearGradient>
<linearGradient id="paint27_linear" x1="1506.02" y1="956.826" x2="1591.6" y2="1337.42" gradientUnits="userSpaceOnUse">
<stop stop-color="#6821FF"/>
<stop offset="1" stop-color="#2201A1"/>
</linearGradient>
<linearGradient id="paint28_linear" x1="1553.65" y1="957.287" x2="1639.57" y2="1340.58" gradientUnits="userSpaceOnUse">
<stop stop-color="#6821FF"/>
<stop offset="1" stop-color="#2201A1"/>
</linearGradient>
<linearGradient id="paint29_linear" x1="1602.85" y1="957.925" x2="1689.17" y2="1343.91" gradientUnits="userSpaceOnUse">
<stop stop-color="#6821FF"/>
<stop offset="1" stop-color="#2201A1"/>
</linearGradient>
<linearGradient id="paint30_linear" x1="1284.71" y1="971.779" x2="1368.95" y2="1341.26" gradientUnits="userSpaceOnUse">
<stop stop-color="#6821FF"/>
<stop offset="1" stop-color="#2201A1"/>
</linearGradient>
<linearGradient id="paint31_linear" x1="1326.93" y1="971.996" x2="1411.57" y2="1343.74" gradientUnits="userSpaceOnUse">
<stop stop-color="#6821FF"/>
<stop offset="1" stop-color="#2201A1"/>
</linearGradient>
<linearGradient id="paint32_linear" x1="1375.35" y1="972.171" x2="1460.05" y2="1346.32" gradientUnits="userSpaceOnUse">
<stop stop-color="#6821FF"/>
<stop offset="1" stop-color="#2201A1"/>
</linearGradient>
<linearGradient id="paint33_linear" x1="1421.17" y1="973.03" x2="1506.34" y2="1349.87" gradientUnits="userSpaceOnUse">
<stop stop-color="#6821FF"/>
<stop offset="1" stop-color="#2201A1"/>
</linearGradient>
<linearGradient id="paint34_linear" x1="1469.22" y1="973.648" x2="1554.69" y2="1353.15" gradientUnits="userSpaceOnUse">
<stop stop-color="#6821FF"/>
<stop offset="1" stop-color="#2201A1"/>
</linearGradient>
<linearGradient id="paint35_linear" x1="1516.89" y1="973.595" x2="1602.55" y2="1355.49" gradientUnits="userSpaceOnUse">
<stop stop-color="#6821FF"/>
<stop offset="1" stop-color="#2201A1"/>
</linearGradient>
<linearGradient id="paint36_linear" x1="1564.41" y1="974.305" x2="1650.53" y2="1358.86" gradientUnits="userSpaceOnUse">
<stop stop-color="#6821FF"/>
<stop offset="1" stop-color="#2201A1"/>
</linearGradient>
<linearGradient id="paint37_linear" x1="68.3158" y1="18.6132" x2="184.642" y2="183.389" gradientUnits="userSpaceOnUse">
<stop stop-color="white"/>
<stop offset="0.99" stop-color="#C6A6FF"/>
</linearGradient>
<linearGradient id="paint38_linear" x1="49.5416" y1="238.288" x2="209.678" y2="146.311" gradientUnits="userSpaceOnUse">
<stop stop-color="#E3D4FF"/>
<stop offset="0.99" stop-color="#9D71EB"/>
</linearGradient>
<linearGradient id="paint39_linear" x1="5146.46" y1="4404.86" x2="6349.94" y2="-1907.62" gradientUnits="userSpaceOnUse">
<stop stop-color="#E3D4FF"/>
<stop offset="0.99" stop-color="#9D71EB"/>
</linearGradient>
<linearGradient id="paint40_linear" x1="3381.18" y1="10439.8" x2="37184.3" y2="10439.8" gradientUnits="userSpaceOnUse">
<stop stop-color="#E3D4FF"/>
<stop offset="0.99" stop-color="#9D71EB"/>
</linearGradient>
<linearGradient id="paint41_linear" x1="18826.9" y1="18273.2" x2="24794.4" y2="21568.7" gradientUnits="userSpaceOnUse">
<stop stop-color="#E3D4FF"/>
<stop offset="0.99" stop-color="#AC85F2"/>
<stop offset="1" stop-color="#AC85F2"/>
</linearGradient>
<linearGradient id="paint42_linear" x1="11924.5" y1="10591.9" x2="19630" y2="12760.5" gradientUnits="userSpaceOnUse">
<stop stop-color="#E3D4FF"/>
<stop offset="0.99" stop-color="#AC85F2"/>
<stop offset="1" stop-color="#AC85F2"/>
</linearGradient>
<linearGradient id="paint43_linear" x1="91.2002" y1="158.825" x2="50.6475" y2="96.0186" gradientUnits="userSpaceOnUse">
<stop stop-color="white"/>
<stop offset="1" stop-color="white" stop-opacity="0.3"/>
</linearGradient>
<linearGradient id="paint44_linear" x1="15711.9" y1="14083.5" x2="9483.98" y2="4775.6" gradientUnits="userSpaceOnUse">
<stop stop-color="white"/>
<stop offset="1" stop-color="white" stop-opacity="0.3"/>
</linearGradient>
<linearGradient id="paint45_linear" x1="15197" y1="6277.81" x2="15217.8" y2="5026.24" gradientUnits="userSpaceOnUse">
<stop stop-color="white"/>
<stop offset="0.99" stop-color="#C6A6FF"/>
</linearGradient>
<linearGradient id="paint46_linear" x1="6925.66" y1="7113.57" x2="11922.4" y2="4273.38" gradientUnits="userSpaceOnUse">
<stop stop-color="#E3D4FF"/>
<stop offset="0.99" stop-color="#AC85F2"/>
<stop offset="1" stop-color="#AC85F2"/>
</linearGradient>
<linearGradient id="paint47_linear" x1="5924.59" y1="1373.63" x2="6194.8" y2="4908.63" gradientUnits="userSpaceOnUse">
<stop stop-color="#E3D4FF" stop-opacity="0"/>
<stop offset="0.99" stop-color="#AC85F2"/>
</linearGradient>
<linearGradient id="paint48_linear" x1="6413.81" y1="9440.1" x2="59743.5" y2="9440.1" gradientUnits="userSpaceOnUse">
<stop stop-color="#E3D4FF"/>
<stop offset="0.99" stop-color="#9D71EB"/>
</linearGradient>
</defs>
</svg>
