<svg width="108" height="78" viewBox="0 0 108 78" fill="none" xmlns="http://www.w3.org/2000/svg">
<path d="M4.37119 1.0014H36.6016C37.6827 1.03241 38.7195 1.44075 39.5341 2.15642C40.3488 2.87208 40.8906 3.85051 41.0666 4.92396L42.1975 12.5925H78.4835C79.5646 12.6236 80.6014 13.0319 81.4161 13.7476C82.2307 14.4632 82.7725 15.4417 82.9486 16.5151L91.1963 72.0977C91.2897 72.5814 91.2741 73.08 91.1506 73.5568C91.0272 74.0337 90.7989 74.4766 90.4828 74.8529C90.1666 75.2293 89.7705 75.5295 89.3237 75.7316C88.8769 75.9336 88.3908 76.0322 87.9011 76.0203H15.4851C14.4061 75.9819 13.3732 75.571 12.56 74.8566C11.7469 74.1422 11.203 73.168 11.02 72.0977L9.30421 60.5654L2.77234 16.4759L1.05651 4.90434C0.965968 4.4204 0.984415 3.9222 1.1105 3.44637C1.23658 2.97054 1.46708 2.52919 1.78507 2.15477C2.10305 1.78036 2.50043 1.48239 2.94797 1.2828C3.39551 1.0832 3.88184 0.987043 4.37119 1.0014Z" fill="url(#paint0_linear)"/>
<path d="M12.3264 72.0976C12.1358 72.5365 12.0602 73.0172 12.1068 73.4938C12.1533 73.9705 12.3203 74.4272 12.5921 74.8205C12.8638 75.2137 13.2311 75.5305 13.659 75.7405C14.087 75.9505 14.5612 76.0468 15.0366 76.0201H87.4331C88.5699 75.947 89.6593 75.5348 90.5622 74.8361C91.4652 74.1375 92.1407 73.1841 92.5026 72.0976L105.917 27.9688C106.113 27.5318 106.193 27.0515 106.15 26.5743C106.107 26.097 105.942 25.6391 105.671 25.2446C105.401 24.8502 105.033 24.5327 104.605 24.3228C104.177 24.1128 103.702 24.0176 103.227 24.0463H30.7521C29.6145 24.1169 28.5239 24.5281 27.6205 25.2271C26.7171 25.9261 26.0422 26.8809 25.6826 27.9688L12.3264 72.0976Z" fill="url(#paint1_linear)"/>
<defs>
<linearGradient id="paint0_linear" x1="55.1638" y1="-32.7718" x2="45.9919" y2="38.919" gradientUnits="userSpaceOnUse">
<stop stop-color="#53B5A4"/>
<stop offset="1" stop-color="#73EEAA"/>
</linearGradient>
<linearGradient id="paint1_linear" x1="67.2135" y1="32.5975" x2="34.2972" y2="102.938" gradientUnits="userSpaceOnUse">
<stop stop-color="#A2E7DD"/>
<stop offset="1" stop-color="#6FF3A1"/>
</linearGradient>
</defs>
</svg>
