<svg width="365" height="222" viewBox="0 0 365 222" fill="none" xmlns="http://www.w3.org/2000/svg">
<path d="M364.493 86.8414C364.477 86.8009 364.444 86.7564 364.4 86.7159C364.351 86.6673 364.29 86.6308 364.218 86.5984L182.313 0.251185C182.265 0.226884 182.212 0.210684 182.147 0.194484C182.091 0.186384 182.026 0.178284 181.957 0.178284C181.892 0.178284 181.831 0.186384 181.775 0.194484C181.71 0.202584 181.657 0.226884 181.609 0.251185L0.287554 86.5984C0.206553 86.6308 0.153902 86.6713 0.105301 86.7159C0.0567008 86.7564 0.0324005 86.8009 0.0121502 86.8495C-0.00405006 86.89 -0.00405006 86.9346 0.0121502 86.9751C0.0283504 87.0237 0.0607509 87.0601 0.0972014 87.0925L182.658 221.656C182.739 221.712 182.824 221.749 182.917 221.781C183.002 221.805 183.107 221.822 183.2 221.822C183.302 221.822 183.399 221.805 183.492 221.781C183.585 221.749 183.674 221.708 183.751 221.656L364.4 87.0925C364.448 87.0601 364.481 87.0196 364.493 86.9751C364.509 86.9386 364.509 86.89 364.493 86.8414ZM270.779 69.9324L295.205 54.6029L327.471 69.9405L303.321 86.3554L270.779 69.9324L269.859 69.4748L239.5 54.1615L264.129 39.8283H264.133L294.293 54.1696L269.859 69.4748L270.779 69.9324ZM181.592 86.8414L151.168 104.504L122.737 86.8414L153.104 70.382L181.592 86.8414ZM153.963 69.9243L182.265 54.5786L210.733 69.9324L182.447 86.3554L153.963 69.9243ZM182.455 87.3396L213.069 105.034L182.662 124.074L152.031 105.042L182.455 87.3396ZM183.31 86.8414L211.587 70.386L242.112 86.8495L213.92 104.496L183.31 86.8414ZM212.393 69.9243L238.759 54.5948L269.118 69.9324L242.902 86.3554L212.393 69.9243ZM211.53 69.4626L183.063 54.1412L209.505 39.8081L237.896 54.1574L211.53 69.4626ZM182.265 53.716L155.648 39.3909L182.107 25.9609L208.708 39.4071L182.265 53.716ZM181.467 54.1493L153.165 69.4545L126.593 54.1331L154.85 39.7919L181.467 54.1493ZM152.306 69.9243L121.939 86.3554L95.4963 69.9162L125.738 54.5705L152.306 69.9243ZM121.024 86.8414L88.3682 104.512L62.136 86.8414L94.5769 70.382L121.024 86.8414ZM121.822 87.3396L150.253 105.042L117.439 124.09L89.162 105.05L121.822 87.3396ZM151.108 105.573L181.738 124.653L148.856 145.243L118.298 124.669L151.108 105.573ZM182.67 125.232L215.775 145.847L182.909 168.187L149.779 145.871L182.67 125.232ZM183.585 124.653L213.993 105.573L246.985 124.637L216.694 145.219L217.192 145.531L216.686 145.219L183.585 124.653ZM214.847 105.038L243.032 87.3436L275.837 105.03L247.835 124.061L214.847 105.038ZM243.83 86.8414L270.038 70.3941L302.596 86.8495L276.627 104.496L243.83 86.8414ZM234.219 25.6005L209.453 39.0021L210.251 39.4071L235.017 25.9852L263.286 39.4233L238.637 53.7241L210.247 39.4071L209.449 39.0021L182.848 25.5802L207.679 12.9805L234.219 25.6005ZM181.965 0.749342L206.93 12.6241L182.099 25.2076L157.118 12.5998L181.965 0.749342ZM156.373 12.9603L181.353 25.5762L154.894 38.9859L129.954 25.564L156.373 12.9603ZM129.156 25.9407L154.097 39.3869L125.839 53.6957L101 39.3707L129.156 25.9407ZM100.15 39.7757L124.997 54.1331L94.7551 69.4545L70.0822 54.125L100.15 39.7757ZM69.1709 54.5543L93.8358 69.9162L61.3948 86.3554L36.9851 69.9081L69.1709 54.5543ZM1.48232 86.8414L36.0091 70.3739L60.4107 86.8414L25.5194 104.52L1.48232 86.8414ZM26.2484 105.059L61.1559 87.3396L87.38 105.05L52.1647 124.11L26.2484 105.059ZM52.9464 124.677L88.1697 105.581L116.439 124.669L80.9525 145.268L52.9464 124.677ZM81.803 145.895L117.298 125.248L147.855 145.871L112.162 168.219L81.803 145.895ZM113.09 168.896L148.783 146.495L181.912 168.863L146.126 193.18L113.09 168.896ZM183.204 220.441L147.126 193.917L182.913 169.544L218.958 193.876L183.204 220.441ZM219.959 193.135L183.921 168.867L216.779 146.474L252.675 168.831L219.959 193.135ZM253.59 168.146L217.703 145.847L217.699 145.843L247.985 125.216L283.646 145.822L253.59 168.146ZM284.48 145.199L248.827 124.641L276.821 105.569L312.174 124.624L284.48 145.199ZM312.956 124.045L277.611 105.03L303.572 87.3436L338.56 105.022L312.956 124.045ZM339.281 104.492L304.305 86.8495L328.447 70.4022L363.031 86.8495L339.281 104.492Z" fill="white"/>
</svg>
