<svg width="406" height="71" viewBox="0 0 406 71" fill="none" xmlns="http://www.w3.org/2000/svg">
<path fill-rule="evenodd" clip-rule="evenodd" d="M5.15038 2.92734C3.40536 3.55453 2.42496 4.3794 2.0355 5.32985C1.36635 6.96287 1.69338 8.85988 3.09678 11.0723C4.50286 13.2889 6.93014 15.718 10.2387 18.311C16.8486 23.4913 26.8037 29.1943 38.5743 35.0488C62.1038 46.752 92.7326 58.9858 117.96 68.7824L117.452 70.0866C92.228 60.2912 61.5434 48.0367 37.9494 36.3013C26.1582 30.4366 16.099 24.6827 9.37346 19.4118C6.01433 16.7792 3.44362 14.2342 1.91285 11.821C0.379391 9.40362 -0.169282 7.01515 0.738429 4.79994C1.34459 3.32065 2.76268 2.29827 4.67574 1.61069C6.59802 0.9198 9.135 0.523238 12.183 0.371806C18.285 0.0686469 26.6043 0.741567 36.5437 2.17378C56.4331 5.03976 82.9503 10.9679 111.496 18.3505C155.648 29.7693 204.706 44.6818 241.704 57.1698C234.941 54.138 228.277 50.8797 223.224 47.8284C220.179 45.9903 217.674 44.2008 216.086 42.5551C215.293 41.7338 214.689 40.9078 214.38 40.0908C214.062 39.2515 214.049 38.3922 214.495 37.6046C214.923 36.8495 215.763 36.4315 216.726 36.1993C217.709 35.9622 218.966 35.8824 220.439 35.9234C223.393 36.0055 227.373 36.5788 232.114 37.512C241.605 39.3801 254.276 42.7177 268.152 46.5844C275.028 48.5003 282.201 50.5464 289.434 52.6098C310.336 58.572 331.747 64.6796 347.981 68.2157C347.67 68.0998 347.351 67.9808 347.023 67.8586C345.36 67.2382 343.483 66.5384 341.515 65.7845C336.842 63.994 331.684 61.9094 327.82 59.9148C325.895 58.9206 324.249 57.928 323.142 56.9832C322.59 56.5126 322.133 56.021 321.852 55.5122C321.565 54.9925 321.434 54.3951 321.659 53.7957C321.904 53.1445 322.459 52.7416 323.094 52.5003C323.726 52.26 324.521 52.1445 325.42 52.1131C327.222 52.0501 329.628 52.3212 332.418 52.8196C338.011 53.8186 345.314 55.7616 352.782 57.9558C360.256 60.1517 367.921 62.6065 374.245 64.635L374.573 64.7403C377.454 65.6644 380.038 66.4933 382.185 67.164C381.541 66.7764 380.918 66.3686 380.374 65.9543C379.843 65.5496 379.362 65.1195 379.007 64.6756C378.661 64.2425 378.373 63.7177 378.373 63.1371V62.9253L378.49 62.749C378.717 62.4091 379.085 62.2507 379.386 62.1679C379.706 62.08 380.083 62.0413 380.486 62.0315C381.295 62.0119 382.339 62.1076 383.517 62.2765C385.88 62.6156 388.904 63.2678 391.929 63.9911C394.958 64.7154 398.008 65.5157 400.429 66.1547L400.912 66.2822C403.111 66.863 404.658 67.2716 405.111 67.3439L404.889 68.7257C404.363 68.6415 402.769 68.2206 400.678 67.6681L400.071 67.5076C397.65 66.8686 394.614 66.0721 391.603 65.352C388.587 64.6309 385.614 63.9911 383.317 63.6617C382.165 63.4964 381.212 63.4137 380.52 63.4304C380.253 63.4369 380.044 63.4578 379.888 63.4875C379.938 63.5784 380.007 63.6834 380.103 63.803C380.357 64.121 380.738 64.4715 381.224 64.8419C382.194 65.5812 383.479 66.3235 384.705 66.9743C385.477 67.3842 386.167 67.7283 386.75 68.0191C387.122 68.2043 387.45 68.3678 387.728 68.5129C387.894 68.5993 388.042 68.6797 388.157 68.7492C388.213 68.7834 388.275 68.8228 388.331 68.865C388.357 68.8852 388.49 68.981 388.576 69.1398C388.624 69.2274 388.725 69.4585 388.621 69.7375C388.516 70.0183 388.286 70.1269 388.189 70.1618C388.022 70.2222 387.862 70.2088 387.818 70.2051L387.814 70.2048C387.679 70.1938 387.506 70.1587 387.322 70.1157C385.204 69.6203 380.358 68.0659 374.265 66.1112L373.816 65.9673C367.491 63.9382 359.841 61.4885 352.386 59.2983C344.926 57.1064 337.685 55.1819 332.172 54.1971C329.409 53.7037 327.12 53.4539 325.469 53.5116C324.641 53.5406 324.019 53.6459 323.592 53.8081C323.168 53.9694 323.022 54.1508 322.971 54.287C322.934 54.3872 322.921 54.5493 323.08 54.8369C323.244 55.1354 323.559 55.499 324.052 55.9195C325.034 56.7571 326.564 57.6908 328.464 58.6717C332.252 60.6274 337.346 62.6884 342.017 64.478C343.943 65.2157 345.802 65.9092 347.464 66.529C349.808 67.4033 351.758 68.1306 352.943 68.6274C353.443 68.8369 353.855 69.0247 354.107 69.1781C354.172 69.218 354.245 69.2667 354.313 69.3239C354.36 69.3638 354.495 69.4801 354.568 69.6706C354.612 69.783 354.644 69.9483 354.592 70.1347C354.54 70.3223 354.425 70.4491 354.326 70.5247C354.158 70.6516 353.977 70.6783 353.914 70.6869C353.75 70.7092 353.554 70.6988 353.37 70.6816C353.17 70.6629 352.923 70.6296 352.631 70.5828C352.045 70.489 351.242 70.336 350.201 70.1195C333.649 66.678 311.011 60.2204 289.002 53.942C281.78 51.8818 274.625 49.8409 267.775 47.9322C253.898 44.0652 241.275 40.7414 231.843 38.8849C227.123 37.9558 223.234 37.4009 220.4 37.3222C218.98 37.2827 217.864 37.3643 217.055 37.5595C216.226 37.7596 215.856 38.0448 215.715 38.2931C215.518 38.6423 215.486 39.0542 215.691 39.5964C215.904 40.1608 216.364 40.8268 217.095 41.5841C218.553 43.0954 220.932 44.8095 223.949 46.631C229.968 50.2654 238.349 54.2222 246.474 57.7419C253.341 60.7163 260.005 63.3703 264.872 65.2434C266.887 65.9721 268.834 66.6845 270.706 67.379C271.595 67.7088 272.147 67.9191 272.395 68.0191C272.453 68.0426 272.51 68.0665 272.552 68.0866C272.564 68.0918 272.583 68.1012 272.605 68.1135C272.617 68.12 272.642 68.1356 272.658 68.1457C272.683 68.1631 272.751 68.2194 272.792 68.2615C272.88 68.3836 272.958 68.8641 272.811 69.1746C272.645 69.3214 272.362 69.4238 272.281 69.4297C272.243 69.4294 272.185 69.4248 272.163 69.4219C272.149 69.4196 272.125 69.4153 272.114 69.413C272.032 69.3954 271.878 69.3432 271.734 69.2937C271.053 69.0595 269.314 68.428 266.851 67.4963C266.093 67.2098 265.267 66.8948 264.381 66.554C226.827 52.9727 165.294 33.7094 111.145 19.7052C82.6145 12.3266 56.1562 6.41369 36.3435 3.55878C26.4318 2.13055 18.2184 1.47303 12.2527 1.76943C9.26681 1.91777 6.88617 2.30348 5.15038 2.92734Z" fill="white"/>
</svg>
