<svg width="488" height="157" viewBox="0 0 488 157" fill="none" xmlns="http://www.w3.org/2000/svg">
<path d="M61.2781 44.9547C41.3339 44.9547 20.9941 43.985 0.182861 42.0455L0.394226 40.3832C99.8765 49.6555 188.791 36.7629 272.225 0.975708L273.109 2.47646C206.789 30.9123 137.012 44.9547 61.2781 44.9547Z" fill="white"/>
<path d="M56.3298 65.9741C47.0839 65.9741 37.7568 65.7894 28.3104 65.4107L28.4026 63.7391C130.177 67.7704 219.893 50.0338 302.624 9.495L303.605 10.9449C228.218 47.8865 147.065 65.9741 56.3298 65.9741Z" fill="white"/>
<path d="M58.8123 87.2982L58.7852 85.6219C161.205 84.3521 253.972 60.9773 334.518 16.1487L335.597 17.5524C254.736 62.5519 161.611 86.0191 58.8123 87.2982Z" fill="white"/>
<path d="M91.5682 107.543L91.4219 105.871C195.652 99.088 288.641 70.4628 367.805 20.7856L368.971 22.134C289.503 71.9959 196.172 100.732 91.5682 107.543Z" fill="white"/>
<path d="M126.617 125.995L126.346 124.338C231.964 111.879 324.828 77.8606 402.361 23.2286L403.608 24.5215C325.793 79.3475 232.603 113.495 126.617 125.995Z" fill="white"/>
<path d="M163.72 142.526L163.335 140.887C270.166 122.656 362.587 83.1193 438.017 23.3617L439.355 24.5854C363.649 84.5554 270.914 124.24 163.72 142.526Z" fill="white"/>
<path d="M202.8 156.976L202.301 155.355C309.94 131.13 401.564 85.9322 474.62 21.0212L476.04 22.1803C402.724 87.3175 310.797 132.668 202.8 156.976Z" fill="white"/>
<path d="M426.543 45.0006C350.761 45.0006 280.994 30.949 214.669 2.46702L215.552 0.975494C298.841 36.7396 387.614 49.6553 486.971 40.4707L487.183 42.1331C466.54 44.0402 446.335 45.0006 426.543 45.0006Z" fill="white"/>
<path d="M431.708 66.011C340.837 66.011 259.63 47.9142 184.189 10.9449L185.17 9.495C267.748 49.9645 357.291 67.7149 458.936 63.813L459.023 65.4754C449.831 65.8309 440.715 66.011 431.708 66.011Z" fill="white"/>
<path d="M428.571 87.3308C325.902 85.9824 232.912 62.506 152.187 17.5435L153.26 16.1397C233.671 60.9314 326.308 84.32 428.603 85.6592L428.571 87.3308Z" fill="white"/>
<path d="M395.673 107.547C291.275 100.648 198.123 71.8982 118.802 22.1102L119.967 20.7664C198.99 70.3698 291.801 99.0041 395.825 105.88L395.673 107.547Z" fill="white"/>
<path d="M360.75 125.981C254.883 113.402 161.829 79.259 84.171 24.4977L85.423 23.2094C162.793 77.7675 255.523 111.786 361.021 124.323L360.75 125.981Z" fill="white"/>
<path d="M323.642 142.485C216.615 124.143 124.021 84.4636 48.4341 24.5628L49.7728 23.3391C125.089 83.0275 217.363 122.56 324.026 140.841L323.642 142.485Z" fill="white"/>
<path d="M284.55 156.901C176.754 132.529 84.9672 87.1966 11.7592 22.161L13.1737 21.0065C86.1324 85.8205 177.605 130.996 285.054 155.285L284.55 156.901Z" fill="white"/>
</svg>
