<svg width="84" height="89" viewBox="0 0 84 89" fill="none" xmlns="http://www.w3.org/2000/svg">
<path fill-rule="evenodd" clip-rule="evenodd" d="M83.9847 33C83.9949 32.6679 84 32.3346 84 32C84 14.3269 69.6731 0 52 0C34.3269 0 20 14.3269 20 32C20 32.3346 20.0051 32.6679 20.0153 33H20V68H84V33H83.9847Z" fill="#FFCB4F"/>
<path fill-rule="evenodd" clip-rule="evenodd" d="M63.9847 54C63.9949 53.6679 64 53.3346 64 53C64 35.3269 49.6731 21 32 21C14.3269 21 0 35.3269 0 53C0 53.3346 0.00513413 53.6679 0.0153279 54H0V89H64V54H63.9847Z" fill="black"/>
</svg>
