<svg width="234" height="37" viewBox="0 0 234 37" fill="none" xmlns="http://www.w3.org/2000/svg">
<mask id="path-1-inside-1" fill="white">
<path fill-rule="evenodd" clip-rule="evenodd" d="M234 36.7586H0.5V35.7586H233V0.258606H234V36.7586Z"/>
</mask>
<path fill-rule="evenodd" clip-rule="evenodd" d="M234 36.7586H0.5V35.7586H233V0.258606H234V36.7586Z" fill="white"/>
<path d="M234 36.7586V37.7586H235V36.7586H234ZM0.5 36.7586H-0.5V37.7586H0.5V36.7586ZM0.5 35.7586V34.7586H-0.5V35.7586H0.5ZM233 35.7586V36.7586H234V35.7586H233ZM233 0.258606V-0.741394H232V0.258606H233ZM234 0.258606H235V-0.741394H234V0.258606ZM234 35.7586H0.5V37.7586H234V35.7586ZM1.5 36.7586V35.7586H-0.5V36.7586H1.5ZM0.5 36.7586H233V34.7586H0.5V36.7586ZM234 35.7586V0.258606H232V35.7586H234ZM233 1.25861H234V-0.741394H233V1.25861ZM233 0.258606V36.7586H235V0.258606H233Z" fill="white" mask="url(#path-1-inside-1)"/>
</svg>
