<svg width="179" height="24" viewBox="0 0 179 24" fill="none" xmlns="http://www.w3.org/2000/svg">
<path fill-rule="evenodd" clip-rule="evenodd" d="M145.318 11.96C136.837 17.1667 128.244 22.4418 117.5 22.4415C107.154 22.4413 101.887 17.8358 96.4181 13.0541C96.043 12.7262 95.6669 12.3974 95.2882 12.0692C92.3385 9.51284 89.2283 6.98945 85.1306 5.09854C81.0379 3.21 75.9349 1.9415 68.9997 1.94153C64.6984 1.94154 59.8593 4.09541 54.565 7.09531C52.3555 8.34731 50.0845 9.73569 47.7537 11.1607C47.3015 11.4371 46.847 11.715 46.3903 11.9934C43.5837 13.7048 40.697 15.4379 37.7547 17.0077C31.8757 20.1442 25.7324 22.6528 19.4909 23.0343C13.2261 23.4173 6.89752 21.655 0.674622 16.3211L1.32541 15.5618C7.35252 20.7279 13.4262 22.4032 19.4299 22.0362C25.4568 21.6677 31.4482 19.2388 37.2839 16.1254C40.199 14.5702 43.0647 12.8501 45.8697 11.1396C46.3241 10.8626 46.777 10.5857 47.2283 10.3098C49.5589 8.88488 51.8467 7.48623 54.072 6.22528C59.3666 3.22519 64.4103 0.941544 68.9997 0.941527C76.0646 0.941501 81.3126 2.23542 85.5496 4.19055C89.7814 6.14332 92.9792 8.74486 95.9431 11.3135C96.3183 11.6386 96.6896 11.9631 97.0589 12.2858C102.525 17.0619 107.537 21.4413 117.5 21.4415C127.948 21.4417 136.303 16.3165 144.827 11.0873C145.546 10.6461 146.267 10.204 146.99 9.76428C156.246 4.13593 165.885 -1.08351 178.579 0.947858L178.421 1.9353C166.115 -0.0339788 156.755 4.9968 147.51 10.6187C146.779 11.063 146.049 11.5113 145.318 11.96Z" fill="white"/>
</svg>
